<svg xmlns="http://www.w3.org/2000/svg" xmlns:xlink="http://www.w3.org/1999/xlink" width="64px" height="54px">
    <path fill-rule="evenodd"  fill="rgb(230, 230, 230)"
          d="M64.008,16.419 C64.008,16.432 64.001,16.443 64.000,16.456 C63.989,16.653 63.914,16.827 63.801,16.975 C63.790,16.989 63.794,17.009 63.783,17.023 L32.741,53.661 C32.724,53.681 32.701,53.694 32.679,53.708 C32.629,53.759 32.571,53.799 32.509,53.838 C32.507,53.839 32.505,53.841 32.503,53.843 C32.501,53.844 32.499,53.843 32.497,53.844 C32.430,53.885 32.369,53.933 32.291,53.958 C32.196,53.991 32.097,54.004 32.000,54.004 C31.903,54.004 31.804,53.991 31.709,53.960 C31.686,53.953 31.671,53.936 31.649,53.927 C31.595,53.906 31.551,53.876 31.502,53.846 C31.500,53.845 31.498,53.843 31.496,53.842 C31.454,53.817 31.423,53.789 31.385,53.757 C31.362,53.739 31.334,53.724 31.313,53.703 C31.297,53.686 31.274,53.679 31.259,53.661 L0.217,17.023 C0.206,17.009 0.210,16.991 0.199,16.977 C0.086,16.829 0.011,16.654 -0.001,16.456 C-0.002,16.443 -0.008,16.432 -0.008,16.419 C-0.009,16.413 -0.012,16.408 -0.012,16.402 C-0.012,16.204 0.062,16.031 0.164,15.878 C0.176,15.861 0.170,15.840 0.182,15.823 L11.823,0.397 C11.914,0.276 12.031,0.180 12.164,0.114 C12.164,0.114 12.164,0.113 12.164,0.113 C12.164,0.113 12.164,0.113 12.164,0.113 C12.167,0.112 12.171,0.112 12.174,0.111 C12.302,0.049 12.436,0.022 12.569,0.018 C12.580,0.018 12.588,0.011 12.599,0.011 L51.401,0.011 C51.409,0.011 51.417,0.017 51.425,0.017 C51.563,0.020 51.703,0.046 51.835,0.111 C51.839,0.113 51.839,0.117 51.842,0.119 C51.972,0.185 52.088,0.278 52.177,0.397 L63.817,15.823 C63.830,15.840 63.824,15.863 63.836,15.880 C63.937,16.032 64.012,16.205 64.012,16.402 C64.012,16.408 64.008,16.413 64.008,16.419 ZM60.956,17.366 L44.352,17.366 L34.389,48.723 L60.956,17.366 ZM32.000,49.843 L42.319,17.366 L21.681,17.366 L32.000,49.843 ZM29.611,48.724 L19.648,17.366 L3.044,17.366 L29.611,48.724 ZM12.432,2.803 L2.899,15.438 L18.788,15.438 L12.432,2.803 ZM14.167,1.939 L20.525,14.578 L30.062,1.939 L14.167,1.939 ZM22.301,15.438 L41.700,15.438 L32.001,2.584 L22.301,15.438 ZM43.475,14.575 L49.831,1.939 L33.940,1.939 L43.475,14.575 ZM51.567,2.803 L45.211,15.438 L61.100,15.438 L51.567,2.803 Z"/>
</svg>