<svg xmlns="http://www.w3.org/2000/svg"><symbol id="arrow"><path fill-rule="evenodd" fill="#666" d="M6 7L0 1.323 1.4-.002 6 4.351l4.6-4.353L12 1.323 6 7z"/></symbol><symbol id="del"><path fill-rule="evenodd" fill="#666" d="M16 14.4L14.4 16 8 9.6 1.6 16 0 14.4 6.4 8 0 1.6 1.6 0 8 6.4 14.4 0 16 1.6 9.6 8l6.4 6.4z"/></symbol><symbol id="diamand"><path fill-rule="evenodd" d="M16.996 4.257l-.002.009a.243.243 0 0 1-.053.135c-.003.003-.002.009-.005.012l-8.239 9.499a.066.066 0 0 1-.017.012.222.222 0 0 1-.045.034l-.002.001-.001.001c-.018.01-.034.023-.055.029a.253.253 0 0 1-.154.001c-.006-.002-.01-.007-.016-.009-.014-.005-.026-.013-.039-.021l-.002-.001c-.011-.007-.019-.014-.029-.022-.007-.005-.014-.009-.019-.014-.005-.004-.011-.006-.015-.011L.064 4.413C.061 4.41.062 4.405.059 4.401a.237.237 0 0 1-.053-.135l-.002-.009-.001-.005c0-.051.02-.096.047-.135.003-.005.001-.01.005-.015L3.144.103A.246.246 0 0 1 3.235.03V.029h.003a.244.244 0 0 1 .105-.024.019.019 0 0 1 .007-.002h10.299l.007.001a.263.263 0 0 1 .109.025l.001.002a.24.24 0 0 1 .089.072l3.09 3.999c.003.005.002.01.005.015a.237.237 0 0 1 .047.135l-.001.005zm-.811.245h-4.407l-2.644 8.13 7.051-8.13zM8.5 12.922l2.739-8.42H5.761l2.739 8.42zm-.634-.29l-2.645-8.13H.814l7.052 8.13zM3.306.727L.776 4.002h4.217L3.306.727zm.461-.224l1.687 3.276L7.985.503H3.767zm2.159 3.499h5.149L8.5.67 5.926 4.002zm5.62-.223L13.233.503H9.015l2.531 3.276zM13.694.727l-1.688 3.275h4.218L13.694.727z"/></symbol><symbol id="direction-gold"><path fill-rule="evenodd" fill="#C79B38" d="M15 30l.5-.5L1 15 15.5.5 15 0 0 15l15 15z"/></symbol><symbol id="direction"><path fill-rule="evenodd" d="M15 30l.5-.5L1 15 15.5.5 15 0 0 15l15 15z"/></symbol><symbol id="fb"><path fill-rule="evenodd" d="M12.436 9.594H9.438V7.595c0-.6.4-1 1-1h1.998V3.596H9.938c-1.898 0-3.497 1.6-3.497 3.499v2.499H4.442v2.999h1.999v6.998h2.997v-6.998h2.998V9.594z"/></symbol><symbol id="instagram"><path fill-rule="evenodd" d="M13.024 16.5H5.858a4.42 4.42 0 0 1-4.413-4.416V4.915A4.42 4.42 0 0 1 5.858.5h7.166a4.418 4.418 0 0 1 4.413 4.415v7.169a4.42 4.42 0 0 1-4.413 4.416zm2.994-4.416V4.915a2.997 2.997 0 0 0-2.994-2.995H5.858a2.997 2.997 0 0 0-2.994 2.995v7.169a2.998 2.998 0 0 0 2.994 2.996h7.166a3 3 0 0 0 2.995-2.996h-.001zm-2.283-6.828A1.05 1.05 0 0 1 13 4.951a1.05 1.05 0 0 1-.306-.736 1.044 1.044 0 0 1 1.777-.737 1.045 1.045 0 0 1 0 1.473 1.052 1.052 0 0 1-.736.305zm-4.294 7.367A4.127 4.127 0 0 1 5.32 8.5a4.127 4.127 0 0 1 4.121-4.123A4.127 4.127 0 0 1 13.562 8.5a4.127 4.127 0 0 1-4.121 4.123zm0-6.826A2.705 2.705 0 0 0 6.739 8.5a2.705 2.705 0 0 0 2.702 2.703A2.705 2.705 0 0 0 12.143 8.5a2.705 2.705 0 0 0-2.702-2.703z"/></symbol><symbol id="libra"><path fill-rule="evenodd" fill="#C79B38" d="M21.988 14.029L19.117 3.081a.344.344 0 0 0-.337-.254H11.346V.341a.347.347 0 1 0-.694 0v2.486H3.103a.345.345 0 0 0-.333.259L.01 14.033c-.027.1 0 .209.065.291a.352.352 0 0 0 .273.132h5.631c.106 0 .208-.05.272-.132a.338.338 0 0 0 .061-.295L3.556 3.513h7.096v15.805H8.258a.347.347 0 0 0-.347.341c0 .186.157.341.347.341h5.487c.19 0 .347-.155.347-.341a.347.347 0 0 0-.347-.341h-2.394V3.513h6.994l-2.621 10.525c-.023.1 0 .209.065.291a.35.35 0 0 0 .272.131h5.594c.107 0 .208-.05.273-.131a.348.348 0 0 0 .06-.3zM5.53 13.774H.787l2.325-9.216 2.418 9.216zm10.971 0l2.293-9.207 2.413 9.207h-4.706z"/></symbol><symbol id="lightning"><path fill-rule="evenodd" fill="#999" d="M1.031 17.001a.272.272 0 0 1-.135-.035.252.252 0 0 1-.116-.31l2.796-7.389-3.38-.927a.252.252 0 0 1-.131-.413L6.919.1A.277.277 0 0 1 7.25.039a.253.253 0 0 1 .131.298l-1.976 6.59 3.398.932a.265.265 0 0 1 .183.173.252.252 0 0 1-.053.242l-7.698 8.637a.277.277 0 0 1-.204.09zM.74 7.954l3.259.893a.27.27 0 0 1 .165.13.246.246 0 0 1 .013.205L1.786 15.5l6.468-7.258L5 7.35a.265.265 0 0 1-.161-.122.245.245 0 0 1-.023-.196l1.702-5.675L.74 7.954z"/></symbol><symbol id="location"><path fill-rule="evenodd" fill="#999" d="M6.711 17.906a.264.264 0 0 1-.408 0C6.046 17.593.006 10.197.006 6.628c0-3.657 2.916-6.632 6.501-6.632 3.584 0 6.5 2.975 6.5 6.632 0 3.57-6.04 10.965-6.296 11.278zM6.507.539C3.215.539.537 3.27.537 6.628c0 3.021 4.9 9.335 5.97 10.676 1.068-1.341 5.969-7.656 5.969-10.676C12.475 3.27 9.798.539 6.507.539zm0 9.168c-1.665 0-3.02-1.381-3.02-3.08 0-1.698 1.354-3.08 3.02-3.08 1.665 0 3.019 1.382 3.019 3.08 0 1.699-1.355 3.08-3.019 3.08zm0-5.617c-1.372 0-2.488 1.138-2.488 2.538s1.116 2.538 2.488 2.538c1.371 0 2.487-1.138 2.487-2.538S7.878 4.09 6.507 4.09z"/></symbol><symbol id="logo-review"><path fill-rule="evenodd" fill="#9B9B9B" d="M50.61 25.444a3711.694 3711.694 0 0 1-7.043 17.017c-.096.23-.351.458-.586.556a3460.392 3460.392 0 0 1-16.915 7.02 1.109 1.109 0 0 1-.766.004 3437.52 3437.52 0 0 1-16.96-7.035 1.1 1.1 0 0 1-.545-.531A3499.23 3499.23 0 0 1 .746 25.461a1.043 1.043 0 0 1 .004-.722A3380.922 3380.922 0 0 1 7.812 7.678c.089-.213.356-.404.583-.499 5.516-2.3 11.037-4.586 16.557-6.875.22-.092.433-.202.65-.304h.194c.166.089.326.193.499.265a8329.15 8329.15 0 0 0 16.653 6.893c.322.133.521.309.656.636 2.334 5.66 4.682 11.315 7.012 16.977a.974.974 0 0 1-.006.673zM44.368 38.47l4.787-11.562-.101-.063c-1.044.98-2.093 1.954-3.126 2.946-.113.108-.163.307-.194.473-.353 1.899-.698 3.799-1.04 5.7-.149.825-.289 1.652-.432 2.479l.106.027zm3.458-11.564a3.014 3.014 0 0 0-.049-.071c-.616.326-1.233.652-1.849.98-.669.356-.669.357-.373 1.064.008.021.043.03.096.065l2.175-2.038zm-3.021 3.977c-.138.099-.205.137-.26.188-1.438 1.344-2.878 2.686-4.308 4.039-.159.15-.284.351-.379.551-.687 1.457-1.363 2.92-2.04 4.382-.057.125-.096.257-.154.413l5.138 1.561 2.003-11.134zm-2.678-5.338h.102c0-1.016.009-2.032-.006-3.048a2.402 2.402 0 0 0-.137-.751 359.046 359.046 0 0 0-1.786-4.904 2.13 2.13 0 0 0-.431-.684 473.869 473.869 0 0 0-4.192-4.431 2.428 2.428 0 0 0-.698-.497 230.493 230.493 0 0 0-4.732-2.201 3.26 3.26 0 0 0-1.157-.278c-2.014-.09-4.029-.15-6.045-.203a2.237 2.237 0 0 0-.797.134 325.888 325.888 0 0 0-4.902 1.789 2.109 2.109 0 0 0-.685.428 494.37 494.37 0 0 0-4.471 4.22 2.288 2.288 0 0 0-.471.659 305.354 305.354 0 0 0-2.24 4.823 2.55 2.55 0 0 0-.213.928 407.84 407.84 0 0 0-.192 5.952c-.007.282.038.581.132.847a301.588 301.588 0 0 0 1.802 4.95c.092.248.252.488.431.684.97 1.059 2.007 2.061 2.924 3.163 1.11 1.334 2.411 2.344 4.049 2.928.469.167.925.385 1.357.632 1.179.674 2.424.992 3.789.896.608-.043 1.228-.003 1.836.065 2.049.229 3.947-.221 5.881-.923 2.041-.74 3.904-1.631 5.327-3.305.073-.086.16-.162.249-.23 1.848-1.419 3.174-3.216 3.941-5.422.036-.106.082-.212.139-.308.878-1.482 1.292-3.071 1.153-4.801-.03-.367.026-.741.043-1.112zm.139-10.922c-.217-.129-.457-.219-.715-.337-.68 1.778-.68 1.779-.072 3.453.126.347.254.693.381 1.04l.352.957c.153-1.625.205-3.225.24-4.826.002-.096-.096-.233-.186-.287zm.266-.769v-2.877l-.767 2.521.767.356zm-1.736.075l-3.192-1.487-.077.073 2.8 2.952.469-1.538zM28.707 5.465l.773-.287-1.867-1.976a2.242 2.242 0 0 0-.079.056l1.173 2.207zm-.377.985l-3.462 1.271.024.144h4.19L28.33 6.45zm.76-.275c.316.598.604 1.15.901 1.697.052.095.127.201.219.245 1.155.546 2.314 1.081 3.473 1.619-1.121-1.307-2.287-2.545-3.464-3.773-.065-.068-.229-.096-.328-.07-.258.068-.506.175-.801.282zm-16.183 7.039l.078.048 2.991-2.822-1.561-.475-1.508 3.249zm1.433-4.992h-2.893l2.541.772.352-.772zm2.222 1.554a.645.645 0 0 0 .374-.014c1.101-.394 2.197-.8 3.294-1.202l-.008-.106c-1.408-.044-2.815-.09-4.223-.131-.847-.025-.847-.021-1.168.763-.016.04-.012.089-.02.161.587.18 1.166.364 1.751.529zM9.738 35.932c.184-.592.374-1.187.552-1.784.035-.119.071-.265.033-.373-.404-1.145-.822-2.285-1.235-3.426l-.11.028c-.045 1.497-.091 2.993-.133 4.49-.024.826.002.853.893 1.065zm-.971.597v2.594c.201-.65.385-1.24.566-1.832.18-.591.16-.62-.566-.762zm1.763-.429c-.025.092.032.278.102.312 1.109.532 2.226 1.046 3.341 1.565l.052-.077-3.048-3.259c-.17.544-.323.998-.447 1.459zm11.998 8.614l-.77.294 1.842 1.963.09-.066-1.162-2.191zm.375-.985l3.239-1.184-.015-.147h-3.93l.706 1.331zm-.848.293c.012-.005.019-.024.06-.08-.217-.406-.452-.793-.633-1.203-.166-.379-.426-.609-.801-.771-.826-.358-1.637-.751-2.454-1.128-.133-.062-.27-.115-.405-.173.889 1.079 1.821 2.08 2.756 3.077.632.675.634.673 1.477.278zm16.268-6.959l-.102-.073-2.927 2.741 1.569.476 1.46-3.144zm-1.397 4.928h2.89l.012-.044-2.536-.771-.366.815zm-2-1.533c-.165-.047-.363-.119-.508-.069-1.195.415-2.381.855-3.606 1.3.08.054.106.087.133.088 1.64.056 3.28.112 4.921.156a.35.35 0 0 0 .26-.154c.137-.25.243-.517.39-.84-.577-.176-1.081-.336-1.59-.481zm-5.483 7.325l11.542-4.782-.006-.112c-1.463-.045-2.926-.099-4.39-.124-.17-.002-.358.13-.512.237-2.132 1.482-4.26 2.97-6.388 4.458-.105.073-.2.159-.3.24l.054.083zm-3.627 1.41l9.132-6.379-.036-.105c-2.076-.061-4.151-.126-6.227-.179-.17-.004-.347.063-.511.123-1.482.537-2.963 1.079-4.444 1.622-.141.052-.278.118-.438.186l2.524 4.732zm-1.881-.57c-.953-1.145-1.948-2.218-2.959-3.277-.109-.114-.307-.168-.473-.201-1.642-.324-3.286-.64-4.93-.955-1.262-.242-2.525-.478-3.788-.717l-.032.103 12.182 5.047zm-4.036-4.409c-.185-.215-.283-.337-.39-.452-.749-.802-1.547-1.563-2.238-2.412a8.86 8.86 0 0 0-3.738-2.714c-1.117-.438-2.186-1-3.316-1.525l-1.505 4.956 11.187 2.147zM8.781 20.158c.463-.902.872-1.833 1.298-2.754.047-.101.075-.211.158-.451-1.151 1.087-2.196 2.071-3.238 3.058-.678.642-.677.644-.226 1.573.467-.249.928-.453 1.341-.729.263-.175.526-.42.667-.697zm-.387 5.529v-4.063l-1.378.735 1.233 3.356.145-.028zm-.621 14.692l.217-.034c0-1.336.012-2.672-.011-4.008a1.445 1.445 0 0 0-.231-.751c-1.472-2.175-2.964-4.336-4.451-6.5-.087-.126-.181-.247-.272-.37l-.067.037 4.815 11.626zm.261-5.8c.021-.186.032-.243.034-.3.064-1.968.128-3.936.19-5.904.003-.111.012-.233-.025-.335-.632-1.756-1.27-3.511-1.922-5.305l-4.693 2.501 6.416 9.343zM6.027 21.981l-.29-.78-1.99 1.88.064.083 2.216-1.183zm1.004-10.358L2.172 23.362c1.115-.945 2.161-1.925 3.196-2.917a.8.8 0 0 0 .211-.412c.517-2.785 1.024-5.572 1.532-8.359l-.08-.051zm-.496 7.663c.115-.071.161-.09.194-.121a2391.57 2391.57 0 0 0 4.324-4.081c.092-.087.181-.19.234-.302.78-1.659 1.553-3.32 2.363-5.055l-5.099-1.55-2.016 11.109zM21.948 2.413L10.326 7.23l.023.107c1.351.042 2.701.099 4.052.115.266.003.575-.09.795-.241 2.169-1.483 4.324-2.987 6.482-4.487.108-.075.208-.16.312-.24l-.042-.071zm3.513-1.344L16.283 7.44c2.045.157 4.039.227 6.034.294a.638.638 0 0 0 .238-.032c1.782-.644 3.564-1.291 5.401-1.958l-2.495-4.675zm1.801.457l-.055.09c1.018 1.074 2.032 2.152 3.062 3.216.11.114.305.172.47.204 2.04.386 4.081.765 6.122 1.142.793.146 1.589.284 2.383.425l.027-.1-12.009-4.977zm4.135 4.447c.092.131.129.199.18.254 1.363 1.442 2.723 2.886 4.096 4.318.162.168.384.293.598.394 1.325.626 2.656 1.24 3.985 1.856.244.113.491.22.781.35l1.554-5.105-11.194-2.067zm10.53 25.196c-.202.662-.573 1.273-.878 1.93.096 0 .136.012.151-.002a599.869 599.869 0 0 0 3.595-3.359.388.388 0 0 0 .083-.324c-.081-.288-.202-.565-.307-.843-.075.024-.106.033-.136.044-1.237.457-2.108 1.245-2.508 2.554zm.976-6.789v4.148l1.394-.747-1.246-3.407-.148.006zm.623-14.667l-.224.036c0 1.434-.011 2.868.01 4.302.003.22.108.468.236.654.93 1.355 1.878 2.698 2.82 4.044l1.91 2.727.098-.056-4.85-11.707zm-.286 5.952c-.046 1.483-.009 2.821-.148 4.141-.163 1.541.12 2.96.719 4.365.444 1.045.794 2.13 1.2 3.232l4.693-2.502-6.464-9.236zm-30.463 6.444l.676-.716c1.403-1.494 2.801-2.992 4.215-4.476.126-.133.348-.245.525-.246 4.97-.023 9.939-.032 14.908-.033.143 0 .325.066.422.166 1.689 1.734 3.368 3.478 5.047 5.221.021.022.029.057.059.121L25.732 37.238 12.777 22.109zm12.524 12.094V22.545h-4.647l4.577 11.687.07-.029zm-1.04.093l.095-.053c-.022-.073-.038-.149-.065-.22-1.456-3.719-2.916-7.437-4.362-11.16-.109-.281-.259-.351-.536-.35-1.58.01-3.16.003-4.741.004-.12 0-.24.025-.438.047l10.047 11.732zm-6.324-16.509l-3.673 3.904h5.198l-1.525-3.904zm1.048.487c.426 1.087.845 2.178 1.291 3.257.04.098.248.174.381.177.644.019 1.288.009 1.933.009h1.607l.021-.109-5.13-3.405-.103.071zm13.215-.09l-5.025 3.429c1.224.105 2.41.11 3.594.097.097-.001.244-.1.279-.188.426-1.087.836-2.181 1.25-3.273l-.098-.065zm1.135-.425l-1.478 3.914h5.274l-3.796-3.914zm3.862 4.839c-.114-.038-.157-.065-.2-.065-1.726-.004-3.452-.015-5.177.007-.142.002-.353.198-.411.35-1.409 3.686-2.802 7.378-4.196 11.069-.032.087-.037.185-.08.412l10.064-11.773zM26.164 34.182l.104.018 4.403-11.649h-4.507v11.631zm-.12-12.76c1.806-1.238 3.616-2.469 5.424-3.705.095-.065.178-.147.317-.264H19.472c.135.118.178.164.228.198 1.917 1.274 3.839 2.543 5.749 3.827.246.166.397.08.595-.056z"/></symbol><symbol id="logo"><path fill-rule="evenodd" d="M191.527 50.114c-.38.909-.755 1.82-1.171 2.712-.203.434-.46.854-.755 1.233-.72.928-1.722 1.054-2.746.369l.253-.558c1.346.329 1.796.123 2.456-1.099.037-.068.066-.141.108-.205.434-.653.403-1.245.016-1.965-1.051-1.957-1.999-3.968-2.986-5.958-.083-.168-.157-.339-.236-.513.69-.201 1.058.005 1.345.64.812 1.794 1.701 3.554 2.561 5.326.048.1.108.194.184.33.711-1.844 1.403-3.644 2.098-5.443.35-.906.351-.905 1.336-.914v.116c-.821 1.977-1.638 3.954-2.463 5.929zm-7.838-16.85h-2.175V7.902H171.28V5.86h22.594v1.986h-10.185v25.418zm-10.755-.016c-.079.02-.116.037-.153.036-.681-.001-1.507.229-2.003-.073-.481-.293-.645-1.124-.911-1.734a690.738 690.738 0 0 1-3.027-7.024c-.159-.377-.361-.509-.777-.508-4.071.016-8.142.017-12.213-.001-.428-.001-.609.158-.766.526-1.189 2.79-2.407 5.567-3.591 8.358-.155.366-.336.497-.727.471-.522-.034-1.049-.008-1.652-.008.066-.195.107-.35.171-.495 3.878-8.908 7.761-17.813 11.627-26.725.169-.389.372-.503.778-.496 1.219.02 1.218.004 1.702 1.113l11.294 25.923c.09.208.164.422.248.637zM159.966 8.575l-5.759 13.3h11.477l-5.718-13.3zm-18.124 43.119c-2.301.002-3.956-1.627-3.954-3.893.001-2.277 1.636-3.87 3.964-3.864 2.315.006 3.95 1.633 3.925 3.904-.025 2.251-1.659 3.851-3.935 3.853zm-.005-6.944c-1.775 0-3.024 1.263-3.023 3.056.002 1.785 1.268 3.073 3.021 3.074 1.756.001 3.028-1.288 3.031-3.071.002-1.786-1.259-3.059-3.029-3.059zm-1.572-11.482c-.185-.021-.373-.246-.51-.416-4.296-5.347-8.586-10.698-12.877-16.048a10681.24 10681.24 0 0 0-5.238-6.527c-.119-.149-.245-.293-.451-.539v23.511h-2.06V5.82c.525 0 1.031-.038 1.525.02.187.021.38.237.517.407 3.634 4.535 7.261 9.076 10.89 13.616l7.259 9.079c.109.136.223.266.433.515V5.849h2.067v27.439c-.523 0-1.044.038-1.555-.02zM123.73 45.204c.056-.145.107-.29.162-.435.295-.763.295-.763 1.231-.641-.511 1.26-1.012 2.511-1.525 3.758-.631 1.535-1.256 3.074-1.917 4.597a8.05 8.05 0 0 1-.828 1.459c-.736 1.027-1.694 1.19-2.842.499l.244-.553.043.149c.543-.079 1.278.03 1.59-.279.581-.577.933-1.388 1.339-2.125.062-.113-.075-.356-.157-.522-1.053-2.131-2.112-4.258-3.169-6.387-.092-.185-.174-.376-.265-.575.93-.172.93-.172 1.313.613l2.764 5.672 2.017-5.23zm-8.132-.419c-.905.069-1.561.844-1.561 1.758v4.949h-.823v-7.396h.799l.047.81c1.235-1.05 2.147-1.242 3.156-.649l-.256.648c-.493-.048-.933-.152-1.362-.12zM96.394 5.865h15.236v2.004H98.553v10.462h11.877v2.049H98.562v10.855h13.463v2.027H96.394V5.865zm1.774 38.273c-.112.356-.223.719-.339 1.079-.632 1.965-1.265 3.93-1.901 5.893-.078.241-.074.52-.48.532-.392.011-.483-.197-.592-.486-.652-1.733-1.316-3.463-1.978-5.193-.06-.157-.128-.31-.241-.58-.328.865-.618 1.624-.904 2.385-.442 1.174-.87 2.353-1.333 3.519-.058.148-.286.311-.442.316-.152.006-.407-.148-.454-.287-.8-2.336-1.575-4.681-2.353-7.024-.018-.053-.009-.113-.013-.17.842-.11.841-.11 1.094.664l1.799 5.506 1.557-4.222c.187-.507.376-1.012.56-1.52.09-.252.129-.493.519-.493.374 0 .449.213.545.471.669 1.81 1.34 3.619 2.012 5.427.032.087.077.17.164.359.594-1.927 1.182-3.744 1.704-5.58.169-.598.441-.802 1.076-.596zM80.24 17.745c1.615.667 3.256 1.277 4.85 1.989.773.345 1.52.798 2.187 1.318 3.427 2.669 3.434 7.898.018 10.587-2.181 1.717-4.73 2.186-7.433 1.946-1.905-.17-3.719-.708-5.293-1.813-.687-.483-1.246-1.147-1.854-1.738-.217-.211-.194-.417.029-.645.351-.359.668-.752 1.027-1.162.119.124.226.226.322.337 2.372 2.758 6.831 3.817 10.195 2.406 1.749-.733 2.957-1.948 3.195-3.883.244-1.991-.457-3.667-2.158-4.75-1.25-.796-2.638-1.387-3.99-2.017-1.337-.622-2.734-1.119-4.051-1.778-1.673-.837-3.044-2.014-3.693-3.844-1.284-3.618.471-7.378 4.144-8.626 3.288-1.117 6.485-.747 9.505.968.386.219.717.529 1.08.788.159.114.333.204.515.314l-1.266 1.717c-1.153-1.105-2.484-1.833-4.032-2.129-1.688-.323-3.371-.35-5.004.277-3.286 1.259-4.115 5.354-1.583 7.792.94.906 2.101 1.455 3.29 1.946zm-4.394 24.123c-.163-.217-.417-.415-.468-.655-.077-.367.234-.608.561-.557.216.034.526.308.549.502.025.216-.229.464-.362.697l-.28.013zm-2.543 12.211c1.077.34 1.977-.195 2.149-1.298.056-.36.057-.731.057-1.096.005-2.315.003-4.629.003-6.943v-.634c.183-.015.297-.032.411-.033.133-.001.266.013.439.023.011.182.031.35.031.518.002 2.469.005 4.937-.003 7.406a6.194 6.194 0 0 1-.095 1.034c-.31 1.81-2.213 2.552-3.778 1.435l.218-.601c.212.071.389.133.568.189zm-20.561-3.245c-.116.276-.424.548-.708.666a4311.98 4311.98 0 0 1-20.421 8.402 1.352 1.352 0 0 1-.926.005 4334.902 4334.902 0 0 1-20.477-8.42c-.266-.11-.547-.375-.657-.636a4308.026 4308.026 0 0 1-8.511-20.364 1.244 1.244 0 0 1 .005-.865A4088.28 4088.28 0 0 1 9.574 9.203c.107-.255.429-.484.704-.598C16.937 5.852 23.603 3.117 30.267.376c.266-.11.523-.242.785-.363h.234c.2.106.393.23.602.316 6.7 2.756 13.4 5.51 20.106 8.251.389.159.629.37.792.761 2.818 6.775 5.653 13.543 8.466 20.32.096.232.089.572-.008.806a4264.143 4264.143 0 0 1-8.502 20.367zm.967-4.776l5.779-13.84-.122-.074c-1.26 1.172-2.527 2.339-3.774 3.525-.136.13-.197.368-.235.566-.425 2.273-.842 4.548-1.255 6.823-.18.988-.348 1.978-.522 2.967l.129.033zm4.175-13.842a2.564 2.564 0 0 1-.059-.085c-.745.391-1.489.781-2.233 1.173-.808.427-.808.428-.451 1.274.011.025.053.036.117.078l2.626-2.44zm-9.087-12.045a2.53 2.53 0 0 0-.52-.819 562.782 562.782 0 0 0-5.061-5.303 2.928 2.928 0 0 0-.843-.595 286.231 286.231 0 0 0-5.713-2.635 3.963 3.963 0 0 0-1.396-.332 403.975 403.975 0 0 0-7.299-.243 2.728 2.728 0 0 0-.963.16 401.373 401.373 0 0 0-5.918 2.141 2.562 2.562 0 0 0-.827.513 598.897 598.897 0 0 0-5.398 5.05c-.232.22-.43.501-.568.789a364.57 364.57 0 0 0-2.705 5.772 3.04 3.04 0 0 0-.256 1.112 470.254 470.254 0 0 0-.233 7.124c-.009.337.045.696.159 1.013a368.363 368.363 0 0 0 2.176 5.925 2.6 2.6 0 0 0 .521.819c1.171 1.268 2.422 2.467 3.53 3.786 1.34 1.596 2.911 2.806 4.889 3.504.565.2 1.116.462 1.638.757 1.423.806 2.926 1.187 4.574 1.072.734-.052 1.483-.003 2.217.078 2.474.274 4.766-.265 7.099-1.105 2.465-.886 4.714-1.952 6.433-3.956.087-.102.192-.193.3-.275 2.231-1.698 3.833-3.849 4.758-6.489.044-.127.099-.254.168-.369 1.06-1.774 1.56-3.676 1.392-5.746-.036-.44.032-.887.052-1.331h.123c0-1.216.011-2.433-.007-3.649a2.841 2.841 0 0 0-.166-.898 403.596 403.596 0 0 0-2.156-5.87zm.599-3.487l-3.854-1.779-.093.087 3.381 3.534.566-1.842zM34.801 6.554l.933-.344-2.254-2.365-.096.067 1.417 2.642zm-.456 1.178l-4.179 1.521.029.173h5.058l-.908-1.694zm.918-.328c.382.715.729 1.376 1.088 2.031.062.113.154.24.264.292 1.394.654 2.795 1.295 4.193 1.939-1.353-1.565-2.761-3.047-4.182-4.516-.079-.082-.276-.115-.396-.084-.312.081-.611.21-.967.338zm-19.538 8.425l.094.058 3.611-3.379-1.885-.569-1.82 3.89zm1.73-5.976h-3.493l3.068.925.425-.925zm2.682 1.861a.791.791 0 0 0 .452-.017c1.329-.472 2.652-.958 3.977-1.439l-.009-.127c-1.7-.053-3.4-.108-5.1-.157-1.021-.029-1.022-.025-1.409.914-.02.048-.015.106-.025.192.709.215 1.409.436 2.114.634zm-9.41 32.02v3.105c.242-.778.465-1.484.683-2.192.217-.708.192-.743-.683-.913zm1.171-.714c.223-.709.452-1.42.667-2.136.043-.142.086-.317.04-.446-.487-1.37-.992-2.735-1.491-4.101l-.133.034c-.054 1.791-.11 3.583-.161 5.374-.028.988.003 1.022 1.078 1.275zm-1.154-18.88c.559-1.08 1.052-2.194 1.567-3.296.056-.121.09-.253.19-.54-1.39 1.301-2.651 2.479-3.909 3.66-.819.769-.817.771-.273 1.882.564-.297 1.12-.542 1.619-.871.318-.21.635-.504.806-.835zm2.235 19.454c1.338.637 2.686 1.253 4.032 1.873a5.1 5.1 0 0 0 .064-.092l-3.68-3.9c-.205.651-.39 1.194-.54 1.746-.03.11.038.332.124.373zm14.361 9.937l-.929.352 2.224 2.349.109-.079-1.404-2.622zm.454-1.18l3.91-1.416a10.624 10.624 0 0 0-.019-.177h-4.744l.853 1.593zm-1.024.352c.015-.007.022-.029.072-.096-.262-.486-.546-.949-.764-1.44-.201-.453-.515-.728-.968-.923-.997-.428-1.975-.899-2.962-1.35-.161-.074-.326-.138-.489-.206 1.073 1.291 2.198 2.488 3.327 3.682.763.807.766.805 1.784.333zm19.64-8.33l-.123-.087-3.534 3.281 1.895.569 1.762-3.763zm-1.686 5.899h3.489l.014-.053a7832.02 7832.02 0 0 0-3.062-.923l-.441.976zm-2.415-1.835c-.199-.056-.439-.142-.614-.082-1.442.496-2.874 1.022-4.352 1.555.096.065.127.104.159.105 1.98.068 3.961.135 5.941.188a.42.42 0 0 0 .314-.185c.167-.299.295-.619.471-1.006-.696-.21-1.305-.402-1.919-.575zm7.912-27.193c.152.416.306.83.46 1.245l.425 1.146c.185-1.946.247-3.861.29-5.776.002-.116-.117-.28-.226-.344-.262-.154-.551-.262-.863-.403-.82 2.128-.82 2.128-.086 4.132zm1.27-4.65v-3.443l-.925 3.017.925.426zm-.729 20.725c-.244.793-.692 1.524-1.061 2.31.116 0 .164.015.183-.002 1.45-1.337 2.9-2.673 4.34-4.021a.463.463 0 0 0 .101-.388c-.098-.344-.245-.675-.371-1.008-.091.028-.129.039-.165.052-1.493.547-2.544 1.49-3.027 3.057zm3.474-.343c-.166.119-.247.164-.313.225-1.737 1.609-3.476 3.216-5.202 4.835a2.23 2.23 0 0 0-.457.659c-.83 1.745-1.646 3.496-2.463 5.246-.07.148-.117.307-.186.494l6.203 1.868 2.418-13.327zM35.69 57.204l13.934-5.723-.007-.135c-1.766-.054-3.533-.117-5.3-.147-.206-.004-.433.155-.619.283-2.574 1.774-5.143 3.555-7.711 5.335-.127.088-.243.192-.363.288l.066.099zm-4.38 1.688l11.026-7.635-.044-.125c-2.506-.074-5.012-.152-7.518-.215-.205-.005-.418.076-.617.147-1.79.643-3.577 1.292-5.365 1.942-.171.062-.336.14-.529.222l3.047 5.664zm-2.27-.682c-1.151-1.37-2.352-2.656-3.573-3.922-.132-.137-.371-.201-.572-.241a991.404 991.404 0 0 0-5.952-1.143c-1.524-.29-3.048-.573-4.573-.858l-.038.123L29.04 58.21zm-4.873-5.278c-.224-.257-.342-.403-.471-.54-.904-.96-1.868-1.872-2.703-2.888-1.224-1.489-2.709-2.548-4.512-3.248-1.349-.524-2.639-1.196-4.004-1.825l-1.817 5.932 13.507 2.569zM10.276 30.757v-4.862l-1.664.879 1.489 4.017.175-.034zm-.749 17.585l.261-.04c0-1.599.015-3.199-.012-4.798a1.728 1.728 0 0 0-.279-.899c-1.778-2.602-3.579-5.189-5.375-7.78-.105-.15-.218-.295-.327-.442a3.276 3.276 0 0 0-.082.044l5.814 13.915zm.315-6.941c.025-.223.038-.291.04-.36.078-2.355.155-4.71.229-7.066.005-.133.016-.279-.029-.401-.763-2.102-1.534-4.202-2.321-6.35l-5.666 2.994 7.747 11.183zM7.418 26.322l-.349-.933-2.403 2.249.077.1 2.675-1.416zm1.213-12.398L2.764 27.975c1.346-1.131 2.609-2.304 3.859-3.491a.964.964 0 0 0 .255-.494c.623-3.333 1.235-6.669 1.85-10.004l-.097-.062zm-.599 9.172c.139-.085.194-.107.234-.145 1.742-1.627 3.483-3.254 5.221-4.884.11-.104.218-.227.282-.362.942-1.985 1.876-3.974 2.853-6.05L10.465 9.8 8.032 23.096zM26.641 2.9L12.609 8.666l.028.128c1.631.051 3.261.119 4.892.138.321.004.694-.108.959-.288 2.619-1.775 5.221-3.576 7.827-5.371.13-.089.251-.191.376-.287l-.05-.086zm4.241-1.608L19.801 8.918c2.468.188 4.877.272 7.285.352a.816.816 0 0 0 .287-.038c2.152-.771 4.303-1.546 6.521-2.345l-3.012-5.595zm2.174.547l-.067.108c1.23 1.285 2.454 2.576 3.697 3.849.134.136.369.207.568.244 2.462.463 4.927.916 7.391 1.367.958.175 1.918.34 2.877.509l.033-.12a88545.52 88545.52 0 0 0-14.499-5.957zm4.993 5.323c.11.157.155.238.217.304 1.645 1.725 3.287 3.454 4.945 5.168.195.201.463.35.722.471 1.6.749 3.206 1.484 4.811 2.222.295.136.593.264.943.419l1.876-6.111-13.514-2.473zM51.94 29.193v4.965l1.683-.894-1.504-4.078-.179.007zm.753-17.554l-.272.042c0 1.716-.012 3.433.013 5.149.004.264.129.56.284.784 1.123 1.621 2.267 3.228 3.405 4.84l2.306 3.263.118-.067-5.854-14.011zm-.346 7.123c-.056 1.775-.011 3.377-.179 4.956-.197 1.845.145 3.544.867 5.225.538 1.251.96 2.549 1.45 3.869l5.666-2.995-7.804-11.055zm-36.779 7.713c.286-.3.552-.578.816-.857 1.693-1.788 3.382-3.582 5.089-5.358.152-.158.42-.293.634-.294 6-.027 11.999-.037 17.999-.039.172 0 .392.079.51.198 2.038 2.076 4.065 4.163 6.093 6.25.025.026.034.068.071.144L31.209 44.583 15.568 26.475zm15.12 14.475V26.997h-5.61l5.526 13.989.084-.036zm-1.256.111l.116-.062c-.026-.088-.046-.179-.079-.264-1.758-4.451-3.521-8.901-5.266-13.357-.132-.337-.313-.421-.647-.419-1.908.011-3.816.003-5.724.005-.145 0-.29.03-.529.056l12.129 14.041zm-7.635-19.759a16178.2 16178.2 0 0 0-4.433 4.673h6.275l-1.842-4.673zm1.265.583c.515 1.301 1.021 2.606 1.559 3.898.049.117.301.208.461.213.777.022 1.555.01 2.333.01h1.941l.025-.131-6.194-4.075-.125.085zm15.956-.107l-6.067 4.104c1.478.125 2.909.131 4.34.115.116-.001.294-.119.336-.225.514-1.301 1.009-2.61 1.509-3.917a7.902 7.902 0 0 0-.118-.077zm1.371-.509l-1.786 4.685h6.368l-4.582-4.685zm4.662 5.792c-.138-.046-.19-.078-.242-.079-2.083-.005-4.167-.017-6.25.009-.171.003-.426.237-.496.419-1.701 4.411-3.383 8.83-5.066 13.249-.039.103-.044.22-.096.493l12.15-14.091zm-13.32 13.864l.125.022 5.316-13.943h-5.441v13.921zm-.146-15.272c2.18-1.482 4.367-2.956 6.55-4.434.114-.078.214-.177.382-.317H23.651c.163.141.214.197.275.237 2.315 1.525 4.635 3.044 6.941 4.581.297.198.479.095.718-.067zM83.87 44.108c1.405.462 2.255 1.753 2.228 3.32-.008.449-.156.588-.616.58-1.653-.027-3.307-.011-4.961-.011h-.66c.053 2.89 3.396 3.669 5.451 2.049.39.594.385.619-.204 1.003-1.576 1.029-3.966.796-5.228-.51-1.233-1.277-1.374-3.656-.305-5.157.889-1.248 2.72-1.791 4.295-1.274zm1.269 3.153c.07-1.529-.989-2.525-2.599-2.51-1.558.015-2.765 1.139-2.676 2.51h5.275zm19.377-3.007c1.38.631 2.07 2.051 1.765 3.743h-6.142c.05 1.047.391 1.908 1.293 2.406 1.44.795 2.839.583 4.176-.356.355.373.32.653-.122.957-1.563 1.074-4.049.861-5.329-.482-1.266-1.33-1.345-3.839-.166-5.303.997-1.238 2.997-1.665 4.525-.965zm.915 2.994c.107-1.418-.927-2.466-2.439-2.496-1.651-.032-2.875 1.029-2.833 2.496h5.272zm3.896-7.278v.681l.001 8.106c0 .251 0 .502.016.752.073 1.215.71 1.597 1.847 1.112.069-.03.137-.062.224-.102.377.517.166.756-.304.935-1.478.562-2.616-.04-2.641-1.538-.055-3.297-.017-6.597-.017-9.946h.874zm27.417 4.905l-.386.649c-.921-.695-1.925-.912-3-.712-.734.136-1.318.553-1.757 1.156-.901 1.235-.752 3.066.329 4.085 1.204 1.134 3.013 1.089 4.575-.175l.383.584c-1.197 1.489-3.902 1.643-5.47.344-1.611-1.333-1.781-4.01-.357-5.632 1.347-1.533 4.159-1.701 5.683-.299zm12.045.152c.779-.665 1.588-1.08 2.566-1.078 1.003.001 1.835.309 2.337 1.3.805-.918 1.789-1.36 2.99-1.297 1.111.059 1.979.622 2.047 1.693.121 1.934.034 3.882.034 5.855h-.769v-3.368c-.001-.541.018-1.083-.016-1.622-.073-1.158-.727-1.783-1.888-1.732a3.67 3.67 0 0 0-1.388.358c-.603.287-.946.744-.913 1.512.066 1.597.02 3.198.02 4.862h-.854v-.634c0-1.39.004-2.781-.001-4.171-.004-1.331-.705-1.999-2.039-1.939-.756.033-1.405.334-1.897.893-.158.179-.239.479-.243.726-.022 1.487-.011 2.974-.011 4.461v.653h-.819v-7.392h.795l.049.92zm13.447-.096c.132-.073.245-.121.341-.191 1.3-.949 3.045-1.104 4.28-.319 1.42.903 1.79 2.298 1.596 3.843-.394 3.142-3.311 4.013-5.742 3.067-.139-.054-.272-.123-.511-.231v3.722h-.801V44.118h.794l.043.813zm-.018 3.127v.985c0 1.301.218 1.549 1.546 1.758.134.022.269.043.405.058 1.406.154 2.631-.516 3.139-1.718.57-1.348.232-3.05-.763-3.838-.982-.777-2.617-.733-3.769.081-.396.279-.613.599-.568 1.11.045.518.01 1.042.01 1.564zm12.211-.67c.142.054.28.118.51.216-.041-.929.146-1.918-.674-2.487-1.076-.745-2.232-.362-3.393.165l-.232-.605c.986-.808 2.91-.995 3.99-.409.72.391 1.076 1.05 1.099 1.803.055 1.789.018 3.581.018 5.438h-.803v-1.106c-.806.955-1.717 1.278-2.788 1.218-1.112-.063-1.882-.702-2.086-1.755-.201-1.036.271-1.994 1.241-2.438 1.027-.47 2.073-.439 3.118-.04zm-3.457 2.212a1.384 1.384 0 0 0 1.147 1.163c.84.15 1.626.01 2.298-.558.353-.299.65-.624.617-1.181-.115-.258-.157-.636-.357-.755-.914-.549-1.903-.651-2.895-.192-.624.289-.906.863-.81 1.523zm8.207-4.54c.912-.791 1.876-1.163 3.004-1.11 1.552.073 2.579.808 2.712 2.332.151 1.717.035 3.457.035 5.216h-.778c0-1.011.004-1.99-.001-2.97-.002-.521.023-1.046-.035-1.562-.187-1.668-1.241-2.45-2.912-2.171-.34.057-.675.183-.993.32-.733.316-1.145.776-1.081 1.683.095 1.364.024 2.74.024 4.11v.589h-.819v-7.39h.791l.053.953z"/></symbol><symbol id="mark-list"><path fill-rule="evenodd" fill="#C69833" d="M9.195 3.235L10.243.291l1.758 2.944H9.195zM6.463.001h3.412L8.802 3.015 6.463.001zM3.595 3.235L6 .137l2.405 3.098h-4.81zM2.122.001h3.414L3.181 3.035 2.122.001zM-.002 3.235L1.754.294l1.027 2.941H-.002zm5.336 7.314L.061 3.697h2.881l2.392 6.852zm3.225-6.852l-2.598 7.301-2.549-7.301h5.147zm3.379 0l-5.409 7.029L9.03 3.697h2.908z"/></symbol><symbol id="no-photo"><path fill-rule="evenodd" fill="#E8E8E8" d="M23.998 26.935c.001-.485.003-.07 0 0zM12 31C1.769 31 .003 27.502.003 27.502l-.001-.767c.002.068.007.037.018-.543.136-7.101 1.164-9.148 8.502-10.449 0 0 1.044 1.307 3.478 1.307s3.479-1.307 3.479-1.307c7.418 1.315 8.388 3.393 8.506 10.686.007.467.011.548.013.506v.567S22.231 31 12 31zm0-15.839c-3.508 0-6.352-3.394-6.352-7.58C5.648 3.394 6.582 0 12 0c5.419 0 6.353 3.394 6.353 7.581 0 4.186-2.845 7.58-6.353 7.58zM.002 26.735c-.002-.071-.001-.255 0 0z"/></symbol><symbol id="star-gold"><path fill-rule="evenodd" fill="#C69833" d="M14.545 11.971L16.18 19 10 15.273 3.82 19l1.635-7.029L0 7.244l7.191-.617L10 0l2.809 6.627L20 7.244l-5.455 4.727z"/></symbol><symbol id="star-grey"><path fill-rule="evenodd" fill="#E8E8E8" d="M14.545 11.971L16.18 19 10 15.273 3.82 19l1.635-7.029L0 7.244l7.191-.617L10 0l2.809 6.627L20 7.244l-5.455 4.727z"/></symbol><symbol id="star"><path fill-rule="evenodd" d="M12.593 15.97a.579.579 0 0 1-.336-.108l-4.258-3.033-4.258 3.033a.582.582 0 0 1-.673 0 .555.555 0 0 1-.208-.627l1.626-4.908L.227 7.291a.555.555 0 0 1-.208-.627.57.57 0 0 1 .544-.388h5.264l1.626-4.908A.572.572 0 0 1 7.998.98c.248 0 .467.157.544.388l1.627 4.908h5.264c.249 0 .468.157.545.388a.555.555 0 0 1-.208.627l-4.261 3.036 1.627 4.908a.554.554 0 0 1-.209.627.571.571 0 0 1-.334.108zM2.325 7.399l3.17 2.26c.2.143.285.396.208.627l-1.211 3.656 3.169-2.259a.582.582 0 0 1 .673 0l3.169 2.259-1.211-3.656a.554.554 0 0 1 .208-.627l3.172-2.26h-3.92a.57.57 0 0 1-.544-.388L7.996 3.356 6.785 7.011a.57.57 0 0 1-.544.388H2.325z"/></symbol><symbol id="vk"><path fill-rule="evenodd" d="M19.952 9.223c.597.515 1.227.999 1.762 1.566.236.252.46.512.631.805.243.415.023.873-.398.898l-2.621-.001c-.676.049-1.216-.191-1.669-.6-.363-.327-.699-.674-1.048-1.012a2.423 2.423 0 0 0-.472-.371c-.358-.205-.668-.142-.873.188-.208.335-.255.707-.276 1.081-.028.545-.214.689-.834.714-1.325.055-2.583-.122-3.751-.713-1.03-.521-1.828-1.256-2.524-2.089C6.526 8.068 5.49 6.287 4.558 4.456c-.209-.413-.056-.634.459-.642a78.39 78.39 0 0 1 2.566-.001c.347.005.577.181.712.471a13.604 13.604 0 0 0 1.739 2.849c.189.236.382.472.657.638.304.184.535.123.678-.176.091-.19.131-.394.151-.597.068-.7.077-1.398-.042-2.095-.073-.435-.35-.716-.841-.799-.251-.042-.213-.124-.092-.25.211-.218.409-.354.804-.354h2.962c.467.081.57.266.634.681l.002 2.909c-.005.161.091.637.418.743.262.076.435-.109.592-.256.709-.665 1.215-1.452 1.668-2.266.2-.358.373-.73.54-1.102.124-.275.318-.411.67-.405l2.851.002c.084 0 .17.001.252.014.48.072.612.255.463.67-.233.65-.688 1.192-1.133 1.737-.475.582-.984 1.143-1.456 1.728-.433.534-.398.804.14 1.268z"/></symbol><symbol id="wish" viewBox="0 0 18 18"><path d="M5.03 1.26c.55 0 1.546.29 3.163 2.05l.8.88.788-.89c1.127-1.27 2.32-2.05 3.12-2.05a3.527 3.527 0 0 1 2.76 1.32 4.923 4.923 0 0 1-.007 6.48c-.064.08-3.46 4.14-6.307 7.54a.5.5 0 0 1-.368.16.523.523 0 0 1-.366-.15c-.693-.86-5.72-7.05-6.305-7.7a4.923 4.923 0 0 1 0-6.47A3.445 3.445 0 0 1 5.03 1.26m0-1.25a4.483 4.483 0 0 0-3.52 1.54 6.26 6.26 0 0 0 0 8.23c.586.65 6.288 7.68 6.288 7.68a1.55 1.55 0 0 0 2.352 0s6.235-7.46 6.3-7.53a6.27 6.27 0 0 0 0-8.24A4.6 4.6 0 0 0 12.9 0c-1.328 0-2.81 1.18-3.917 2.42C7.84 1.18 6.403.01 5.03.01z"/></symbol><symbol id="youtube"><path fill-rule="evenodd" d="M18.876 16.175c-.48.162-3.438.325-6.397.325-2.958 0-5.917-.163-6.397-.325-1.279-.406-1.599-3.25-1.599-6.175s.32-5.769 1.599-6.175c.48-.163 3.439-.325 6.397-.325 2.959 0 5.917.162 6.397.325 1.28.406 1.599 3.25 1.599 6.175s-.319 5.769-1.599 6.175zM10.88 6.344v7.312L15.678 10 10.88 6.344z"/></symbol></svg>