<svg xmlns="http://www.w3.org/2000/svg" xmlns:xlink="http://www.w3.org/1999/xlink">
    <path fill-rule="evenodd" d="M16.996,4.257 C16.996,4.260 16.994,4.263 16.994,4.266 C16.991,4.317 16.971,4.362 16.941,4.401 C16.938,4.404 16.939,4.410 16.936,4.413 L8.697,13.912 C8.692,13.917 8.686,13.921 8.680,13.924 C8.667,13.937 8.652,13.948 8.635,13.958 C8.634,13.958 8.634,13.959 8.633,13.959 C8.633,13.959 8.632,13.959 8.632,13.960 C8.614,13.970 8.598,13.983 8.577,13.989 C8.552,13.997 8.526,14.001 8.500,14.001 C8.474,14.001 8.448,13.997 8.423,13.990 C8.417,13.988 8.413,13.983 8.407,13.981 C8.393,13.976 8.381,13.968 8.368,13.960 C8.367,13.960 8.367,13.959 8.366,13.959 C8.355,13.952 8.347,13.945 8.337,13.937 C8.330,13.932 8.323,13.928 8.318,13.923 C8.313,13.919 8.307,13.917 8.303,13.912 L0.064,4.413 C0.061,4.410 0.062,4.405 0.059,4.401 C0.029,4.363 0.009,4.318 0.006,4.266 C0.006,4.263 0.004,4.260 0.004,4.257 C0.004,4.255 0.003,4.254 0.003,4.252 C0.003,4.201 0.023,4.156 0.050,4.117 C0.053,4.112 0.051,4.107 0.055,4.102 L3.144,0.103 C3.169,0.071 3.200,0.046 3.235,0.030 C3.235,0.029 3.235,0.029 3.235,0.029 C3.235,0.029 3.235,0.029 3.235,0.029 C3.236,0.029 3.237,0.029 3.238,0.029 C3.272,0.013 3.307,0.005 3.343,0.005 C3.345,0.004 3.348,0.003 3.350,0.003 L13.649,0.003 C13.652,0.003 13.654,0.004 13.656,0.004 C13.693,0.005 13.730,0.012 13.765,0.029 C13.766,0.029 13.766,0.030 13.766,0.031 C13.801,0.048 13.832,0.072 13.855,0.103 L16.945,4.102 C16.948,4.107 16.947,4.112 16.950,4.117 C16.977,4.156 16.997,4.201 16.997,4.252 C16.997,4.254 16.996,4.255 16.996,4.257 ZM16.185,4.502 L11.778,4.502 L9.134,12.632 L16.185,4.502 ZM8.500,12.922 L11.239,4.502 L5.761,4.502 L8.500,12.922 ZM7.866,12.632 L5.221,4.502 L0.814,4.502 L7.866,12.632 ZM3.306,0.727 L0.776,4.002 L4.993,4.002 L3.306,0.727 ZM3.767,0.503 L5.454,3.779 L7.985,0.503 L3.767,0.503 ZM5.926,4.002 L11.075,4.002 L8.500,0.670 L5.926,4.002 ZM11.546,3.779 L13.233,0.503 L9.015,0.503 L11.546,3.779 ZM13.694,0.727 L12.006,4.002 L16.224,4.002 L13.694,0.727 Z"/>
</svg>