<svg xmlns="http://www.w3.org/2000/svg" xmlns:xlink="http://www.w3.org/1999/xlink" width="18px" height="17px">
    <path fill-rule="evenodd"  stroke-width="1px" d="M13.024,16.500 L5.858,16.500 C3.425,16.500 1.445,14.519 1.445,12.084 L1.445,4.915 C1.445,2.481 3.425,0.500 5.858,0.500 L13.024,0.500 C15.458,0.500 17.438,2.481 17.437,4.915 L17.437,12.084 C17.437,14.519 15.458,16.500 13.024,16.500 ZM16.018,12.084 L16.018,4.915 C16.018,3.263 14.675,1.920 13.024,1.920 L5.858,1.920 C4.207,1.920 2.864,3.263 2.864,4.915 L2.864,12.084 C2.864,13.736 4.207,15.080 5.858,15.080 L13.024,15.080 C14.675,15.080 16.019,13.736 16.019,12.084 L16.018,12.084 ZM13.735,5.256 C13.462,5.256 13.193,5.144 13.000,4.951 C12.806,4.757 12.694,4.488 12.694,4.215 C12.694,3.940 12.806,3.671 13.000,3.478 C13.193,3.284 13.462,3.174 13.735,3.174 C14.009,3.174 14.278,3.284 14.471,3.478 C14.665,3.671 14.775,3.940 14.775,4.215 C14.775,4.488 14.665,4.757 14.471,4.951 C14.277,5.144 14.009,5.256 13.735,5.256 ZM9.441,12.623 C7.169,12.623 5.320,10.773 5.320,8.500 C5.320,6.227 7.169,4.377 9.441,4.377 C11.713,4.377 13.562,6.227 13.562,8.500 C13.562,10.773 11.713,12.623 9.441,12.623 ZM9.441,5.797 C7.951,5.797 6.739,7.009 6.739,8.500 C6.739,9.991 7.951,11.203 9.441,11.203 C10.931,11.203 12.143,9.991 12.143,8.500 C12.143,7.009 10.931,5.797 9.441,5.797 Z"/>
</svg>