<svg 
 xmlns="http://www.w3.org/2000/svg"
 xmlns:xlink="http://www.w3.org/1999/xlink"
 width="22px" height="20px">
<path fill-rule="evenodd"  fill="rgb(199, 155, 56)"
 d="M21.988,14.029 L21.988,14.029 L19.117,3.081 C19.076,2.931 18.942,2.827 18.780,2.827 C18.775,2.827 18.775,2.827 18.770,2.827 C18.766,2.827 18.761,2.827 18.757,2.827 L11.346,2.827 L11.346,0.341 C11.346,0.154 11.189,-0.000 10.999,-0.000 C10.810,-0.000 10.652,0.154 10.652,0.341 L10.652,2.827 L3.126,2.827 C3.122,2.827 3.117,2.827 3.112,2.827 C3.108,2.827 3.108,2.827 3.103,2.827 C2.946,2.827 2.807,2.936 2.770,3.086 L0.010,14.033 C-0.017,14.133 0.010,14.242 0.075,14.324 C0.140,14.406 0.242,14.456 0.348,14.456 L5.979,14.456 C6.085,14.456 6.187,14.406 6.251,14.324 C6.316,14.242 6.339,14.133 6.312,14.029 L3.556,3.513 L10.652,3.513 L10.652,19.318 L8.258,19.318 C8.068,19.318 7.911,19.473 7.911,19.659 C7.911,19.845 8.068,20.000 8.258,20.000 L13.745,20.000 C13.935,20.000 14.092,19.845 14.092,19.659 C14.092,19.473 13.935,19.318 13.745,19.318 L11.351,19.318 L11.351,3.513 L18.345,3.513 L15.724,14.038 C15.701,14.138 15.724,14.247 15.789,14.329 C15.853,14.410 15.955,14.460 16.061,14.460 L21.655,14.460 C21.762,14.460 21.863,14.410 21.928,14.329 C21.993,14.242 22.016,14.133 21.988,14.029 ZM5.530,13.774 L0.787,13.774 L3.112,4.558 L5.530,13.774 ZM16.501,13.774 L18.794,4.567 L21.207,13.774 L16.501,13.774 Z"/>
</svg>