<svg xmlns="http://www.w3.org/2000/svg" xmlns:xlink="http://www.w3.org/1999/xlink" width="9px" height="17px">
    <path fill-rule="evenodd"  fill="rgb(153, 153, 153)"
          d="M1.031,17.001 C0.985,17.001 0.938,16.990 0.896,16.966 C0.785,16.903 0.735,16.773 0.780,16.656 L3.576,9.267 L0.196,8.340 C0.109,8.317 0.040,8.252 0.013,8.169 C-0.013,8.085 0.006,7.994 0.065,7.927 L6.919,0.100 C7.001,0.007 7.139,-0.017 7.250,0.039 C7.361,0.096 7.417,0.221 7.381,0.337 L5.405,6.927 L8.803,7.859 C8.890,7.883 8.959,7.948 8.986,8.032 C9.012,8.116 8.992,8.207 8.933,8.274 L1.235,16.911 C1.182,16.969 1.107,17.001 1.031,17.001 ZM0.740,7.954 L3.999,8.847 C4.070,8.867 4.130,8.914 4.164,8.977 C4.198,9.041 4.203,9.116 4.177,9.182 L1.786,15.500 L8.254,8.242 L5.000,7.350 C4.932,7.332 4.874,7.288 4.839,7.228 C4.804,7.168 4.796,7.098 4.816,7.032 L6.518,1.357 L0.740,7.954 Z"/>
</svg>