<svg 
 xmlns="http://www.w3.org/2000/svg"
 xmlns:xlink="http://www.w3.org/1999/xlink"
 width="13px" height="18px">
<path fill-rule="evenodd"  fill="rgb(153, 153, 153)"
 d="M6.711,17.906 C6.660,17.967 6.585,18.003 6.507,18.003 C6.428,18.003 6.353,17.967 6.303,17.906 C6.046,17.593 0.006,10.197 0.006,6.628 C0.006,2.971 2.922,-0.004 6.507,-0.004 C10.091,-0.004 13.007,2.971 13.007,6.628 C13.007,10.198 6.967,17.593 6.711,17.906 ZM6.507,0.539 C3.215,0.539 0.537,3.270 0.537,6.628 C0.537,9.649 5.437,15.963 6.507,17.304 C7.575,15.963 12.476,9.648 12.476,6.628 C12.475,3.270 9.798,0.539 6.507,0.539 ZM6.507,9.707 C4.842,9.707 3.487,8.326 3.487,6.627 C3.487,4.929 4.841,3.547 6.507,3.547 C8.172,3.547 9.526,4.929 9.526,6.627 C9.526,8.326 8.171,9.707 6.507,9.707 ZM6.507,4.090 C5.135,4.090 4.019,5.228 4.019,6.628 C4.019,8.028 5.135,9.166 6.507,9.166 C7.878,9.166 8.994,8.028 8.994,6.628 C8.994,5.228 7.878,4.090 6.507,4.090 Z"/>
</svg>