<svg 
 xmlns="http://www.w3.org/2000/svg"
 xmlns:xlink="http://www.w3.org/1999/xlink"
 width="51px" height="51px">
<path fill-rule="evenodd"  fill="rgb(155, 155, 155)"
 d="M50.610,25.444 C48.275,31.122 45.930,36.795 43.567,42.461 C43.471,42.691 43.216,42.919 42.981,43.017 C37.349,45.372 31.710,47.712 26.066,50.037 C25.845,50.128 25.521,50.132 25.300,50.041 C19.640,47.711 13.987,45.366 8.340,43.006 C8.119,42.914 7.886,42.693 7.795,42.475 C5.430,36.810 3.081,31.138 0.746,25.461 C0.660,25.253 0.664,24.948 0.750,24.739 C3.089,19.046 5.442,13.358 7.812,7.678 C7.901,7.465 8.168,7.274 8.395,7.179 C13.911,4.879 19.432,2.593 24.952,0.304 C25.172,0.212 25.385,0.102 25.602,0.000 C25.667,0.000 25.731,0.000 25.796,0.000 C25.962,0.089 26.122,0.193 26.295,0.265 C31.844,2.567 37.394,4.868 42.948,7.158 C43.270,7.291 43.469,7.467 43.604,7.794 C45.938,13.454 48.286,19.109 50.616,24.771 C50.696,24.965 50.690,25.249 50.610,25.444 ZM44.368,38.470 C45.964,34.616 47.560,30.762 49.155,26.908 C49.121,26.887 49.088,26.866 49.054,26.845 C48.010,27.825 46.961,28.799 45.928,29.791 C45.815,29.899 45.765,30.098 45.734,30.264 C45.381,32.163 45.036,34.063 44.694,35.964 C44.545,36.789 44.405,37.616 44.262,38.443 C44.297,38.452 44.333,38.461 44.368,38.470 ZM47.826,26.906 C47.810,26.882 47.794,26.859 47.777,26.835 C47.161,27.161 46.544,27.487 45.928,27.815 C45.259,28.171 45.259,28.172 45.555,28.879 C45.563,28.900 45.598,28.909 45.651,28.944 C46.372,28.269 47.099,27.587 47.826,26.906 ZM44.805,30.883 C44.667,30.982 44.600,31.020 44.545,31.071 C43.107,32.415 41.667,33.757 40.237,35.110 C40.078,35.260 39.953,35.461 39.858,35.661 C39.171,37.118 38.495,38.581 37.818,40.043 C37.761,40.168 37.722,40.300 37.664,40.456 C39.397,40.983 41.083,41.495 42.802,42.017 C43.473,38.288 44.131,34.629 44.805,30.883 ZM42.127,25.545 C42.161,25.545 42.195,25.545 42.229,25.545 C42.229,24.529 42.238,23.513 42.223,22.497 C42.219,22.245 42.170,21.983 42.086,21.746 C41.501,20.108 40.909,18.472 40.300,16.842 C40.207,16.594 40.050,16.352 39.869,16.158 C38.481,14.672 37.084,13.195 35.677,11.727 C35.482,11.524 35.234,11.351 34.979,11.230 C33.408,10.482 31.834,9.741 30.247,9.029 C29.890,8.869 29.481,8.769 29.090,8.751 C27.076,8.661 25.061,8.601 23.045,8.548 C22.780,8.541 22.498,8.592 22.248,8.682 C20.609,9.266 18.975,9.861 17.346,10.471 C17.098,10.563 16.855,10.718 16.661,10.899 C15.162,12.296 13.672,13.703 12.190,15.119 C11.998,15.302 11.834,15.537 11.719,15.778 C10.960,17.380 10.210,18.986 9.479,20.601 C9.350,20.885 9.279,21.216 9.266,21.529 C9.187,23.513 9.124,25.497 9.074,27.481 C9.067,27.763 9.112,28.062 9.206,28.328 C9.792,29.983 10.393,31.633 11.008,33.278 C11.100,33.526 11.260,33.766 11.439,33.962 C12.409,35.021 13.446,36.023 14.363,37.125 C15.473,38.459 16.774,39.469 18.412,40.053 C18.881,40.220 19.337,40.438 19.769,40.685 C20.948,41.359 22.193,41.677 23.558,41.581 C24.166,41.538 24.786,41.578 25.394,41.646 C27.443,41.875 29.341,41.425 31.275,40.723 C33.316,39.983 35.179,39.092 36.602,37.418 C36.675,37.332 36.762,37.256 36.851,37.188 C38.699,35.769 40.025,33.972 40.792,31.766 C40.828,31.660 40.874,31.554 40.931,31.458 C41.809,29.976 42.223,28.387 42.084,26.657 C42.054,26.290 42.110,25.916 42.127,25.545 ZM42.266,14.623 C42.049,14.494 41.809,14.404 41.551,14.286 C40.871,16.064 40.871,16.065 41.479,17.739 C41.605,18.086 41.733,18.432 41.860,18.779 C41.977,19.098 42.095,19.417 42.212,19.736 C42.365,18.111 42.417,16.511 42.452,14.910 C42.454,14.814 42.356,14.677 42.266,14.623 ZM42.532,13.854 C42.532,12.852 42.532,11.953 42.532,10.977 C42.265,11.854 42.017,12.670 41.765,13.498 C42.013,13.613 42.213,13.706 42.532,13.854 ZM40.796,13.929 C39.699,13.418 38.651,12.930 37.604,12.442 C37.578,12.466 37.553,12.491 37.527,12.515 C38.441,13.478 39.355,14.442 40.327,15.467 C40.499,14.904 40.645,14.424 40.796,13.929 ZM28.707,5.465 C28.978,5.364 29.199,5.282 29.480,5.178 C28.836,4.497 28.224,3.849 27.613,3.202 C27.586,3.220 27.560,3.239 27.534,3.258 C27.921,3.986 28.309,4.715 28.707,5.465 ZM28.330,6.450 C27.133,6.889 26.001,7.305 24.868,7.721 C24.876,7.769 24.884,7.817 24.892,7.865 C26.277,7.865 27.662,7.865 29.082,7.865 C28.838,7.405 28.587,6.934 28.330,6.450 ZM29.090,6.175 C29.406,6.773 29.694,7.325 29.991,7.872 C30.043,7.967 30.118,8.073 30.210,8.117 C31.365,8.663 32.524,9.198 33.683,9.736 C32.562,8.429 31.396,7.191 30.219,5.963 C30.154,5.895 29.990,5.867 29.891,5.893 C29.633,5.961 29.385,6.068 29.090,6.175 ZM12.907,13.214 C12.933,13.230 12.959,13.246 12.985,13.262 C13.962,12.341 14.938,11.419 15.976,10.440 C15.404,10.266 14.922,10.119 14.415,9.965 C13.902,11.070 13.405,12.142 12.907,13.214 ZM14.340,8.222 C13.337,8.222 12.442,8.222 11.447,8.222 C12.343,8.494 13.158,8.742 13.988,8.994 C14.105,8.738 14.196,8.538 14.340,8.222 ZM16.562,9.776 C16.677,9.809 16.823,9.803 16.936,9.762 C18.037,9.368 19.133,8.962 20.230,8.560 C20.228,8.524 20.225,8.489 20.222,8.454 C18.814,8.410 17.407,8.364 15.999,8.323 C15.152,8.298 15.152,8.302 14.831,9.086 C14.815,9.126 14.819,9.175 14.811,9.247 C15.398,9.427 15.977,9.611 16.562,9.776 ZM9.738,35.932 C9.922,35.340 10.112,34.745 10.290,34.148 C10.325,34.029 10.361,33.883 10.323,33.775 C9.919,32.630 9.501,31.490 9.088,30.349 C9.051,30.358 9.014,30.368 8.978,30.377 C8.933,31.874 8.887,33.370 8.845,34.867 C8.821,35.693 8.847,35.720 9.738,35.932 ZM8.767,36.529 C8.767,37.375 8.767,38.211 8.767,39.123 C8.968,38.473 9.152,37.883 9.333,37.291 C9.513,36.700 9.493,36.671 8.767,36.529 ZM10.530,36.100 C10.505,36.192 10.562,36.378 10.632,36.412 C11.741,36.944 12.858,37.458 13.973,37.977 C13.990,37.951 14.008,37.925 14.025,37.900 C13.026,36.832 12.028,35.764 10.977,34.641 C10.807,35.185 10.654,35.639 10.530,36.100 ZM22.528,44.714 C22.251,44.820 22.029,44.905 21.758,45.008 C22.415,45.708 23.008,46.339 23.600,46.971 C23.630,46.949 23.660,46.927 23.690,46.905 C23.312,46.192 22.933,45.479 22.528,44.714 ZM22.903,43.729 C24.013,43.323 25.078,42.934 26.142,42.545 C26.137,42.496 26.132,42.447 26.127,42.398 C24.834,42.398 23.541,42.398 22.197,42.398 C22.432,42.839 22.660,43.270 22.903,43.729 ZM22.055,44.022 C22.067,44.017 22.074,43.998 22.115,43.942 C21.898,43.536 21.663,43.149 21.482,42.739 C21.316,42.360 21.056,42.130 20.681,41.968 C19.855,41.610 19.044,41.217 18.227,40.840 C18.094,40.778 17.957,40.725 17.822,40.667 C18.711,41.746 19.643,42.747 20.578,43.744 C21.210,44.419 21.212,44.417 22.055,44.022 ZM38.323,37.063 C38.289,37.038 38.255,37.014 38.221,36.990 C37.265,37.885 36.308,38.781 35.294,39.731 C35.884,39.910 36.356,40.053 36.863,40.207 C37.357,39.144 37.840,38.103 38.323,37.063 ZM36.926,41.991 C37.961,41.991 38.889,41.991 39.816,41.991 C39.820,41.977 39.824,41.962 39.828,41.947 C38.993,41.693 38.158,41.439 37.292,41.176 C37.176,41.434 37.073,41.663 36.926,41.991 ZM34.926,40.458 C34.761,40.411 34.563,40.339 34.418,40.389 C33.223,40.804 32.037,41.244 30.812,41.689 C30.892,41.743 30.918,41.776 30.945,41.777 C32.585,41.833 34.225,41.889 35.866,41.933 C35.953,41.935 36.083,41.857 36.126,41.779 C36.263,41.529 36.369,41.262 36.516,40.939 C35.939,40.763 35.435,40.603 34.926,40.458 ZM29.443,47.783 C33.290,46.189 37.138,44.595 40.985,43.001 C40.983,42.964 40.981,42.926 40.979,42.889 C39.516,42.844 38.053,42.790 36.589,42.765 C36.419,42.763 36.231,42.895 36.077,43.002 C33.945,44.484 31.817,45.972 29.689,47.460 C29.584,47.533 29.489,47.619 29.389,47.700 C29.407,47.727 29.425,47.755 29.443,47.783 ZM25.816,49.193 C28.885,47.050 31.916,44.932 34.948,42.814 C34.936,42.779 34.924,42.744 34.912,42.709 C32.836,42.648 30.761,42.583 28.685,42.530 C28.515,42.526 28.338,42.593 28.174,42.653 C26.692,43.190 25.211,43.732 23.730,44.275 C23.589,44.327 23.452,44.393 23.292,44.461 C24.147,46.065 24.972,47.611 25.816,49.193 ZM23.935,48.623 C22.982,47.478 21.987,46.405 20.976,45.346 C20.867,45.232 20.669,45.178 20.503,45.145 C18.861,44.821 17.217,44.505 15.573,44.190 C14.311,43.948 13.048,43.712 11.785,43.473 C11.774,43.507 11.764,43.542 11.753,43.576 C15.814,45.259 19.875,46.941 23.935,48.623 ZM19.899,44.214 C19.714,43.999 19.616,43.877 19.509,43.762 C18.760,42.960 17.962,42.199 17.271,41.350 C16.257,40.105 15.027,39.220 13.533,38.636 C12.416,38.198 11.347,37.636 10.217,37.111 C9.710,38.781 9.216,40.405 8.712,42.067 C12.451,42.784 16.114,43.487 19.899,44.214 ZM8.781,20.158 C9.244,19.256 9.653,18.325 10.079,17.404 C10.126,17.303 10.154,17.193 10.237,16.953 C9.086,18.040 8.041,19.024 6.999,20.011 C6.321,20.653 6.322,20.655 6.773,21.584 C7.240,21.335 7.701,21.131 8.114,20.855 C8.377,20.680 8.640,20.435 8.781,20.158 ZM8.394,25.687 C8.394,24.346 8.394,23.006 8.394,21.624 C7.940,21.867 7.483,22.110 7.016,22.359 C7.441,23.517 7.845,24.616 8.249,25.715 C8.298,25.706 8.346,25.696 8.394,25.687 ZM7.773,40.379 C7.846,40.368 7.918,40.357 7.990,40.345 C7.990,39.009 8.002,37.673 7.979,36.337 C7.975,36.083 7.890,35.795 7.748,35.586 C6.276,33.411 4.784,31.250 3.297,29.086 C3.210,28.960 3.116,28.839 3.025,28.716 C3.003,28.728 2.981,28.740 2.958,28.753 C4.563,32.628 6.168,36.504 7.773,40.379 ZM8.034,34.579 C8.055,34.393 8.066,34.336 8.068,34.279 C8.132,32.311 8.196,30.343 8.258,28.375 C8.261,28.264 8.270,28.142 8.233,28.040 C7.601,26.284 6.963,24.529 6.311,22.735 C4.742,23.571 3.211,24.387 1.618,25.236 C3.758,28.352 5.861,31.415 8.034,34.579 ZM6.027,21.981 C5.928,21.715 5.841,21.481 5.737,21.201 C5.048,21.852 4.398,22.466 3.747,23.081 C3.768,23.108 3.790,23.136 3.811,23.164 C4.541,22.774 5.270,22.385 6.027,21.981 ZM7.031,11.623 C5.411,15.536 3.791,19.449 2.172,23.362 C3.287,22.417 4.333,21.437 5.368,20.445 C5.474,20.344 5.552,20.180 5.579,20.033 C6.096,17.248 6.603,14.461 7.111,11.674 C7.085,11.657 7.058,11.640 7.031,11.623 ZM6.535,19.286 C6.650,19.215 6.696,19.196 6.729,19.165 C8.172,17.806 9.614,16.446 11.053,15.084 C11.145,14.997 11.234,14.894 11.287,14.782 C12.067,13.123 12.840,11.462 13.650,9.727 C11.926,9.203 10.260,8.696 8.551,8.177 C7.873,11.913 7.210,15.568 6.535,19.286 ZM21.948,2.413 C18.074,4.018 14.200,5.624 10.326,7.230 C10.334,7.265 10.342,7.301 10.349,7.337 C11.700,7.379 13.050,7.436 14.401,7.452 C14.667,7.455 14.976,7.362 15.196,7.211 C17.365,5.728 19.520,4.224 21.678,2.724 C21.786,2.649 21.886,2.564 21.990,2.484 C21.976,2.460 21.962,2.436 21.948,2.413 ZM25.461,1.069 C22.369,3.215 19.326,5.328 16.283,7.440 C18.328,7.597 20.322,7.667 22.317,7.734 C22.396,7.737 22.481,7.729 22.555,7.702 C24.337,7.058 26.119,6.411 27.956,5.744 C27.103,4.146 26.289,2.620 25.461,1.069 ZM27.262,1.526 C27.244,1.556 27.225,1.586 27.207,1.616 C28.225,2.690 29.239,3.768 30.269,4.832 C30.379,4.946 30.574,5.004 30.739,5.036 C32.779,5.422 34.820,5.801 36.861,6.178 C37.654,6.324 38.450,6.462 39.244,6.603 C39.253,6.570 39.262,6.537 39.271,6.503 C35.268,4.844 31.265,3.185 27.262,1.526 ZM31.397,5.973 C31.489,6.104 31.526,6.172 31.577,6.227 C32.940,7.669 34.300,9.113 35.673,10.545 C35.835,10.713 36.057,10.838 36.271,10.939 C37.596,11.565 38.927,12.179 40.256,12.795 C40.500,12.908 40.747,13.015 41.037,13.145 C41.560,11.428 42.068,9.759 42.591,8.040 C38.845,7.348 35.161,6.668 31.397,5.973 ZM41.927,31.169 C41.725,31.831 41.354,32.442 41.049,33.099 C41.145,33.099 41.185,33.111 41.200,33.097 C42.401,31.981 43.603,30.864 44.795,29.738 C44.865,29.671 44.905,29.509 44.878,29.414 C44.797,29.126 44.676,28.849 44.571,28.571 C44.496,28.595 44.465,28.604 44.435,28.615 C43.198,29.072 42.327,29.860 41.927,31.169 ZM42.903,24.380 C42.903,25.748 42.903,27.117 42.903,28.528 C43.378,28.273 43.837,28.027 44.297,27.781 C43.868,26.607 43.460,25.490 43.051,24.374 C43.002,24.376 42.953,24.378 42.903,24.380 ZM43.526,9.713 C43.451,9.725 43.377,9.737 43.302,9.749 C43.302,11.183 43.291,12.617 43.312,14.051 C43.315,14.271 43.420,14.519 43.548,14.705 C44.478,16.060 45.426,17.403 46.368,18.749 C47.005,19.658 47.641,20.567 48.278,21.476 C48.311,21.457 48.343,21.438 48.376,21.420 C46.759,17.518 45.143,13.615 43.526,9.713 ZM43.240,15.665 C43.194,17.148 43.231,18.486 43.092,19.806 C42.929,21.347 43.212,22.766 43.811,24.171 C44.255,25.216 44.605,26.301 45.011,27.403 C46.585,26.564 48.116,25.747 49.704,24.901 C47.550,21.823 45.438,18.806 43.240,15.665 ZM12.777,22.109 C13.014,21.858 13.234,21.626 13.453,21.393 C14.856,19.899 16.254,18.401 17.668,16.917 C17.794,16.784 18.016,16.672 18.193,16.671 C23.163,16.648 28.132,16.639 33.101,16.638 C33.244,16.638 33.426,16.704 33.523,16.804 C35.212,18.538 36.891,20.282 38.570,22.025 C38.591,22.047 38.599,22.082 38.629,22.146 C34.347,27.157 30.055,32.179 25.732,37.238 C21.404,32.183 17.104,27.162 12.777,22.109 ZM25.301,34.203 C25.301,30.322 25.301,26.441 25.301,22.545 C23.744,22.545 22.235,22.545 20.654,22.545 C22.198,26.489 23.715,30.361 25.231,34.232 C25.254,34.223 25.277,34.213 25.301,34.203 ZM24.261,34.296 C24.292,34.278 24.324,34.261 24.356,34.243 C24.334,34.170 24.318,34.094 24.291,34.023 C22.835,30.304 21.375,26.586 19.929,22.863 C19.820,22.582 19.670,22.512 19.393,22.513 C17.813,22.523 16.233,22.516 14.652,22.517 C14.532,22.517 14.412,22.542 14.214,22.564 C17.597,26.514 20.929,30.405 24.261,34.296 ZM17.937,17.787 C16.702,19.100 15.511,20.366 14.264,21.691 C16.050,21.691 17.719,21.691 19.462,21.691 C18.949,20.378 18.454,19.112 17.937,17.787 ZM18.985,18.274 C19.411,19.361 19.830,20.452 20.276,21.531 C20.316,21.629 20.524,21.705 20.657,21.708 C21.301,21.727 21.945,21.717 22.590,21.717 C23.126,21.717 23.661,21.717 24.197,21.717 C24.204,21.681 24.211,21.644 24.218,21.608 C22.508,20.473 20.798,19.338 19.088,18.203 C19.054,18.227 19.019,18.250 18.985,18.274 ZM32.200,18.184 C30.525,19.327 28.850,20.470 27.175,21.613 C28.399,21.718 29.585,21.723 30.769,21.710 C30.866,21.709 31.013,21.610 31.048,21.522 C31.474,20.435 31.884,19.341 32.298,18.249 C32.265,18.227 32.233,18.206 32.200,18.184 ZM33.335,17.759 C32.827,19.105 32.348,20.373 31.857,21.673 C33.630,21.673 35.344,21.673 37.131,21.673 C35.844,20.347 34.618,19.082 33.335,17.759 ZM37.197,22.598 C37.083,22.560 37.040,22.533 36.997,22.533 C35.271,22.529 33.545,22.518 31.820,22.540 C31.678,22.542 31.467,22.738 31.409,22.890 C30.000,26.576 28.607,30.268 27.213,33.959 C27.181,34.046 27.176,34.144 27.133,34.371 C30.537,30.389 33.846,26.519 37.197,22.598 ZM26.164,34.182 C26.199,34.188 26.233,34.194 26.268,34.200 C27.730,30.332 29.192,26.464 30.671,22.551 C29.120,22.551 27.645,22.551 26.164,22.551 C26.164,26.447 26.164,30.315 26.164,34.182 ZM26.044,21.422 C27.850,20.184 29.660,18.953 31.468,17.717 C31.563,17.652 31.646,17.570 31.785,17.453 C27.667,17.453 23.630,17.453 19.472,17.453 C19.607,17.571 19.650,17.617 19.700,17.651 C21.617,18.925 23.539,20.194 25.449,21.478 C25.695,21.644 25.846,21.558 26.044,21.422 Z"/>
</svg>