<svg 
 xmlns="http://www.w3.org/2000/svg"
 xmlns:xlink="http://www.w3.org/1999/xlink"
 width="194px" height="60px">
<path fill-rule="evenodd"  fill="rgb(0, 0, 0)"
 d="M191.527,50.114 C191.147,51.023 190.772,51.934 190.356,52.826 C190.153,53.260 189.896,53.680 189.601,54.059 C188.881,54.987 187.879,55.113 186.855,54.428 C186.939,54.243 187.025,54.053 187.108,53.870 C188.454,54.199 188.904,53.993 189.564,52.771 C189.601,52.703 189.630,52.630 189.672,52.566 C190.106,51.913 190.075,51.321 189.688,50.601 C188.637,48.644 187.689,46.633 186.702,44.643 C186.619,44.475 186.545,44.304 186.466,44.130 C187.156,43.929 187.524,44.135 187.811,44.770 C188.623,46.564 189.512,48.324 190.372,50.096 C190.420,50.196 190.480,50.290 190.556,50.426 C191.267,48.582 191.959,46.782 192.654,44.983 C193.004,44.077 193.005,44.078 193.990,44.069 C193.990,44.108 193.990,44.146 193.990,44.185 C193.169,46.162 192.352,48.139 191.527,50.114 ZM183.689,33.264 C182.925,33.264 182.249,33.264 181.514,33.264 C181.514,24.832 181.514,16.401 181.514,7.902 C178.081,7.902 174.704,7.902 171.280,7.902 C171.280,7.191 171.280,6.547 171.280,5.860 C178.791,5.860 186.297,5.860 193.874,5.860 C193.874,6.524 193.874,7.156 193.874,7.846 C190.497,7.846 187.136,7.846 183.689,7.846 C183.689,16.348 183.689,24.793 183.689,33.264 ZM172.934,33.248 C172.855,33.268 172.818,33.285 172.781,33.284 C172.100,33.283 171.274,33.513 170.778,33.211 C170.297,32.918 170.133,32.087 169.867,31.477 C168.847,29.140 167.834,26.801 166.840,24.453 C166.681,24.076 166.479,23.944 166.063,23.945 C161.992,23.961 157.921,23.962 153.850,23.944 C153.422,23.943 153.241,24.102 153.084,24.470 C151.895,27.260 150.677,30.037 149.493,32.828 C149.338,33.194 149.157,33.325 148.766,33.299 C148.244,33.265 147.717,33.291 147.114,33.291 C147.180,33.096 147.221,32.941 147.285,32.796 C151.163,23.888 155.046,14.983 158.912,6.071 C159.081,5.682 159.284,5.568 159.690,5.575 C160.909,5.595 160.908,5.579 161.392,6.688 C165.157,15.329 168.922,23.970 172.686,32.611 C172.776,32.819 172.850,33.033 172.934,33.248 ZM159.966,8.575 C158.012,13.088 156.116,17.467 154.207,21.875 C158.068,21.875 161.843,21.875 165.684,21.875 C163.785,17.457 161.912,13.101 159.966,8.575 ZM141.842,51.694 C139.541,51.696 137.886,50.067 137.888,47.801 C137.889,45.524 139.524,43.931 141.852,43.937 C144.167,43.943 145.802,45.570 145.777,47.841 C145.752,50.092 144.118,51.692 141.842,51.694 ZM141.837,44.750 C140.062,44.750 138.813,46.013 138.814,47.806 C138.816,49.591 140.082,50.879 141.835,50.880 C143.591,50.881 144.863,49.592 144.866,47.809 C144.868,46.023 143.607,44.750 141.837,44.750 ZM140.265,33.268 C140.080,33.247 139.892,33.022 139.755,32.852 C135.459,27.505 131.169,22.154 126.878,16.804 C125.133,14.628 123.387,12.452 121.640,10.277 C121.521,10.128 121.395,9.984 121.189,9.738 C121.189,17.637 121.189,25.422 121.189,33.249 C120.472,33.249 119.822,33.249 119.129,33.249 C119.129,24.127 119.129,15.004 119.129,5.820 C119.654,5.820 120.160,5.782 120.654,5.840 C120.841,5.861 121.034,6.077 121.171,6.247 C124.805,10.782 128.432,15.323 132.061,19.863 C134.480,22.890 136.900,25.916 139.320,28.942 C139.429,29.078 139.543,29.208 139.753,29.457 C139.753,21.519 139.753,13.703 139.753,5.849 C140.517,5.849 141.153,5.849 141.820,5.849 C141.820,14.989 141.820,24.098 141.820,33.288 C141.297,33.288 140.776,33.326 140.265,33.268 ZM123.730,45.204 C123.786,45.059 123.837,44.914 123.892,44.769 C124.187,44.006 124.187,44.006 125.123,44.128 C124.612,45.388 124.111,46.639 123.598,47.886 C122.967,49.421 122.342,50.960 121.681,52.483 C121.459,52.993 121.177,53.489 120.853,53.942 C120.117,54.969 119.159,55.132 118.011,54.441 C118.101,54.238 118.178,54.063 118.255,53.888 C118.269,53.938 118.283,53.988 118.298,54.037 C118.841,53.958 119.576,54.067 119.888,53.758 C120.469,53.181 120.821,52.370 121.227,51.633 C121.289,51.520 121.152,51.277 121.070,51.111 C120.017,48.980 118.958,46.853 117.901,44.724 C117.809,44.539 117.727,44.348 117.636,44.149 C118.566,43.977 118.566,43.977 118.949,44.762 C119.861,46.635 120.775,48.509 121.713,50.434 C122.399,48.657 123.065,46.930 123.730,45.204 ZM115.598,44.785 C114.693,44.854 114.037,45.629 114.037,46.543 C114.036,48.180 114.037,49.817 114.037,51.492 C113.747,51.492 113.506,51.492 113.214,51.492 C113.214,49.029 113.214,46.574 113.214,44.096 C113.475,44.096 113.721,44.096 114.013,44.096 C114.029,44.367 114.043,44.622 114.060,44.906 C115.295,43.856 116.207,43.664 117.216,44.257 C117.112,44.519 117.022,44.748 116.960,44.905 C116.467,44.857 116.027,44.753 115.598,44.785 ZM96.394,5.865 C101.461,5.865 106.528,5.865 111.630,5.865 C111.630,6.522 111.630,7.166 111.630,7.869 C107.259,7.869 102.925,7.869 98.553,7.869 C98.553,11.373 98.553,14.819 98.553,18.331 C102.511,18.331 106.453,18.331 110.430,18.331 C110.430,19.041 110.430,19.684 110.430,20.380 C106.463,20.380 102.536,20.380 98.562,20.380 C98.562,24.010 98.562,27.588 98.562,31.235 C103.045,31.235 107.513,31.235 112.025,31.235 C112.025,31.972 112.025,32.603 112.025,33.262 C106.808,33.262 101.619,33.262 96.394,33.262 C96.394,24.129 96.394,15.020 96.394,5.865 ZM98.168,44.138 C98.056,44.494 97.945,44.857 97.829,45.217 C97.197,47.182 96.564,49.147 95.928,51.110 C95.850,51.351 95.854,51.630 95.448,51.642 C95.056,51.653 94.965,51.445 94.856,51.156 C94.204,49.423 93.540,47.693 92.878,45.963 C92.818,45.806 92.750,45.653 92.637,45.383 C92.309,46.248 92.019,47.007 91.733,47.768 C91.291,48.942 90.863,50.121 90.400,51.287 C90.342,51.435 90.114,51.598 89.958,51.603 C89.806,51.609 89.551,51.455 89.504,51.316 C88.704,48.980 87.929,46.635 87.151,44.292 C87.133,44.239 87.142,44.179 87.138,44.122 C87.980,44.012 87.979,44.012 88.232,44.786 C88.824,46.599 89.417,48.413 90.031,50.292 C90.563,48.850 91.075,47.460 91.588,46.070 C91.775,45.563 91.964,45.058 92.148,44.550 C92.238,44.298 92.277,44.057 92.667,44.057 C93.041,44.057 93.116,44.270 93.212,44.528 C93.881,46.338 94.552,48.147 95.224,49.955 C95.256,50.042 95.301,50.125 95.388,50.314 C95.982,48.387 96.570,46.570 97.092,44.734 C97.261,44.136 97.533,43.932 98.168,44.138 ZM80.240,17.745 C81.855,18.412 83.496,19.022 85.090,19.734 C85.863,20.079 86.610,20.532 87.277,21.052 C90.704,23.721 90.711,28.950 87.295,31.639 C85.114,33.356 82.565,33.825 79.862,33.585 C77.957,33.415 76.143,32.877 74.569,31.772 C73.882,31.289 73.323,30.625 72.715,30.034 C72.498,29.823 72.521,29.617 72.744,29.389 C73.095,29.030 73.412,28.637 73.771,28.227 C73.890,28.351 73.997,28.453 74.093,28.564 C76.465,31.322 80.924,32.381 84.288,30.970 C86.037,30.237 87.245,29.022 87.483,27.087 C87.727,25.096 87.026,23.420 85.325,22.337 C84.075,21.541 82.687,20.950 81.335,20.320 C79.998,19.698 78.601,19.201 77.284,18.542 C75.611,17.705 74.240,16.528 73.591,14.698 C72.307,11.080 74.062,7.320 77.735,6.072 C81.023,4.955 84.220,5.325 87.240,7.040 C87.626,7.259 87.957,7.569 88.320,7.828 C88.479,7.942 88.653,8.032 88.835,8.142 C88.347,8.804 87.971,9.314 87.569,9.859 C86.416,8.754 85.085,8.026 83.537,7.730 C81.849,7.407 80.166,7.380 78.533,8.007 C75.247,9.266 74.418,13.361 76.950,15.799 C77.890,16.705 79.051,17.254 80.240,17.745 ZM75.846,41.868 C75.683,41.651 75.429,41.453 75.378,41.213 C75.301,40.846 75.612,40.605 75.939,40.656 C76.155,40.690 76.465,40.964 76.488,41.158 C76.513,41.374 76.259,41.622 76.126,41.855 C76.033,41.859 75.940,41.863 75.846,41.868 ZM73.303,54.079 C74.380,54.419 75.280,53.884 75.452,52.781 C75.508,52.421 75.509,52.050 75.509,51.685 C75.514,49.370 75.512,47.056 75.512,44.742 C75.512,44.535 75.512,44.327 75.512,44.108 C75.695,44.093 75.809,44.076 75.923,44.075 C76.056,44.074 76.189,44.088 76.362,44.098 C76.373,44.280 76.393,44.448 76.393,44.616 C76.395,47.085 76.398,49.553 76.390,52.022 C76.389,52.367 76.354,52.715 76.295,53.056 C75.985,54.866 74.082,55.608 72.517,54.491 C72.582,54.311 72.652,54.118 72.735,53.890 C72.947,53.961 73.124,54.023 73.303,54.079 ZM52.742,50.834 C52.626,51.110 52.318,51.382 52.034,51.500 C45.234,54.318 38.427,57.119 31.613,59.902 C31.345,60.011 30.954,60.016 30.687,59.907 C23.854,57.118 17.029,54.311 10.210,51.487 C9.944,51.377 9.663,51.112 9.553,50.851 C6.698,44.070 3.862,37.282 1.042,30.487 C0.939,30.238 0.943,29.873 1.047,29.622 C3.872,22.809 6.712,16.001 9.574,9.203 C9.681,8.948 10.003,8.719 10.278,8.605 C16.937,5.852 23.603,3.117 30.267,0.376 C30.533,0.266 30.790,0.134 31.052,0.013 C31.130,0.013 31.208,0.013 31.286,0.013 C31.486,0.119 31.679,0.243 31.888,0.329 C38.588,3.085 45.288,5.839 51.994,8.580 C52.383,8.739 52.623,8.950 52.786,9.341 C55.604,16.116 58.439,22.884 61.252,29.661 C61.348,29.893 61.341,30.233 61.244,30.467 C58.426,37.263 55.595,44.053 52.742,50.834 ZM53.709,46.058 C55.635,41.445 57.562,36.832 59.488,32.218 C59.448,32.193 59.407,32.169 59.366,32.144 C58.106,33.316 56.839,34.483 55.592,35.669 C55.456,35.799 55.395,36.037 55.357,36.235 C54.932,38.508 54.515,40.783 54.102,43.058 C53.922,44.046 53.754,45.036 53.580,46.025 C53.623,46.036 53.666,46.047 53.709,46.058 ZM57.884,32.216 C57.864,32.188 57.844,32.160 57.825,32.131 C57.080,32.522 56.336,32.912 55.592,33.304 C54.784,33.731 54.784,33.732 55.141,34.578 C55.152,34.603 55.194,34.614 55.258,34.656 C56.129,33.847 57.006,33.032 57.884,32.216 ZM48.797,20.171 C48.685,19.874 48.496,19.584 48.277,19.352 C46.601,17.574 44.915,15.805 43.216,14.049 C42.981,13.806 42.681,13.599 42.373,13.454 C40.476,12.559 38.576,11.672 36.660,10.819 C36.229,10.628 35.735,10.508 35.264,10.487 C32.832,10.379 30.398,10.308 27.965,10.244 C27.644,10.235 27.305,10.297 27.002,10.404 C25.024,11.103 23.051,11.815 21.084,12.545 C20.785,12.656 20.491,12.841 20.257,13.058 C18.447,14.730 16.648,16.414 14.859,18.108 C14.627,18.328 14.429,18.609 14.291,18.897 C13.375,20.814 12.468,22.737 11.586,24.669 C11.431,25.010 11.345,25.406 11.330,25.781 C11.233,28.155 11.158,30.530 11.097,32.905 C11.088,33.242 11.142,33.601 11.256,33.918 C11.964,35.899 12.690,37.874 13.432,39.843 C13.544,40.140 13.736,40.427 13.953,40.662 C15.124,41.930 16.375,43.129 17.483,44.448 C18.823,46.044 20.394,47.254 22.372,47.952 C22.937,48.152 23.488,48.414 24.010,48.709 C25.433,49.515 26.936,49.896 28.584,49.781 C29.318,49.729 30.067,49.778 30.801,49.859 C33.275,50.133 35.567,49.594 37.900,48.754 C40.365,47.868 42.614,46.802 44.333,44.798 C44.420,44.696 44.525,44.605 44.633,44.523 C46.864,42.825 48.466,40.674 49.391,38.034 C49.435,37.907 49.490,37.780 49.559,37.665 C50.619,35.891 51.119,33.989 50.951,31.919 C50.915,31.479 50.983,31.032 51.003,30.588 C51.044,30.588 51.085,30.588 51.126,30.588 C51.126,29.372 51.137,28.155 51.119,26.939 C51.114,26.638 51.055,26.325 50.953,26.041 C50.248,24.079 49.532,22.121 48.797,20.171 ZM49.396,16.684 C48.071,16.072 46.806,15.488 45.542,14.905 C45.511,14.934 45.480,14.963 45.449,14.992 C46.552,16.145 47.656,17.298 48.830,18.526 C49.037,17.851 49.214,17.276 49.396,16.684 ZM34.801,6.554 C35.128,6.433 35.395,6.335 35.734,6.210 C34.956,5.395 34.218,4.620 33.480,3.845 C33.448,3.867 33.416,3.889 33.384,3.912 C33.852,4.784 34.320,5.656 34.801,6.554 ZM34.345,7.732 C32.901,8.258 31.533,8.756 30.166,9.253 C30.176,9.311 30.185,9.369 30.195,9.426 C31.867,9.426 33.538,9.426 35.253,9.426 C34.958,8.876 34.656,8.312 34.345,7.732 ZM35.263,7.404 C35.645,8.119 35.992,8.780 36.351,9.435 C36.413,9.548 36.505,9.675 36.615,9.727 C38.009,10.381 39.410,11.022 40.808,11.666 C39.455,10.101 38.047,8.619 36.626,7.150 C36.547,7.068 36.350,7.035 36.230,7.066 C35.918,7.147 35.619,7.276 35.263,7.404 ZM15.725,15.829 C15.756,15.848 15.788,15.867 15.819,15.887 C16.998,14.783 18.177,13.680 19.430,12.508 C18.740,12.300 18.157,12.124 17.545,11.939 C16.926,13.263 16.326,14.546 15.725,15.829 ZM17.455,9.853 C16.244,9.853 15.164,9.853 13.962,9.853 C15.044,10.179 16.028,10.476 17.030,10.778 C17.171,10.471 17.281,10.232 17.455,9.853 ZM20.137,11.714 C20.276,11.753 20.453,11.746 20.589,11.697 C21.918,11.225 23.241,10.739 24.566,10.258 C24.563,10.215 24.560,10.173 24.557,10.131 C22.857,10.078 21.157,10.023 19.457,9.974 C18.436,9.945 18.435,9.949 18.048,10.888 C18.028,10.936 18.033,10.994 18.023,11.080 C18.732,11.295 19.432,11.516 20.137,11.714 ZM10.727,43.734 C10.727,44.747 10.727,45.747 10.727,46.839 C10.969,46.061 11.192,45.355 11.410,44.647 C11.627,43.939 11.602,43.904 10.727,43.734 ZM11.898,43.020 C12.121,42.311 12.350,41.600 12.565,40.884 C12.608,40.742 12.651,40.567 12.605,40.438 C12.118,39.068 11.613,37.703 11.114,36.337 C11.069,36.349 11.025,36.360 10.981,36.371 C10.927,38.162 10.871,39.954 10.820,41.745 C10.792,42.733 10.823,42.767 11.898,43.020 ZM10.744,24.140 C11.303,23.060 11.796,21.946 12.311,20.844 C12.367,20.723 12.401,20.591 12.501,20.304 C11.111,21.605 9.850,22.783 8.592,23.964 C7.773,24.733 7.775,24.735 8.319,25.846 C8.883,25.549 9.439,25.304 9.938,24.975 C10.256,24.765 10.573,24.471 10.744,24.140 ZM12.979,43.594 C14.317,44.231 15.665,44.847 17.011,45.467 C17.033,45.436 17.054,45.406 17.075,45.375 C15.869,44.097 14.663,42.819 13.395,41.475 C13.190,42.126 13.005,42.669 12.855,43.221 C12.825,43.331 12.893,43.553 12.979,43.594 ZM27.340,53.531 C27.006,53.658 26.738,53.759 26.411,53.883 C27.204,54.720 27.919,55.476 28.635,56.232 C28.671,56.206 28.708,56.180 28.744,56.153 C28.287,55.300 27.830,54.446 27.340,53.531 ZM27.794,52.351 C29.134,51.866 30.419,51.401 31.704,50.935 C31.698,50.876 31.692,50.817 31.685,50.758 C30.124,50.758 28.563,50.758 26.941,50.758 C27.224,51.287 27.500,51.803 27.794,52.351 ZM26.770,52.703 C26.785,52.696 26.792,52.674 26.842,52.607 C26.580,52.121 26.296,51.658 26.078,51.167 C25.877,50.714 25.563,50.439 25.110,50.244 C24.113,49.816 23.135,49.345 22.148,48.894 C21.987,48.820 21.822,48.756 21.659,48.688 C22.732,49.979 23.857,51.176 24.986,52.370 C25.749,53.177 25.752,53.175 26.770,52.703 ZM46.410,44.373 C46.369,44.344 46.328,44.315 46.287,44.286 C45.133,45.358 43.978,46.430 42.753,47.567 C43.465,47.781 44.036,47.952 44.648,48.136 C45.244,46.864 45.827,45.618 46.410,44.373 ZM44.724,50.272 C45.974,50.272 47.093,50.272 48.213,50.272 C48.218,50.255 48.222,50.237 48.227,50.219 C47.219,49.915 46.211,49.611 45.165,49.296 C45.025,49.606 44.902,49.879 44.724,50.272 ZM42.309,48.437 C42.110,48.381 41.870,48.295 41.695,48.355 C40.253,48.851 38.821,49.377 37.343,49.910 C37.439,49.975 37.470,50.014 37.502,50.015 C39.482,50.083 41.463,50.150 43.443,50.203 C43.549,50.205 43.706,50.112 43.757,50.018 C43.924,49.719 44.052,49.399 44.228,49.012 C43.532,48.802 42.923,48.610 42.309,48.437 ZM50.221,21.244 C50.373,21.660 50.527,22.074 50.681,22.489 C50.822,22.871 50.964,23.253 51.106,23.635 C51.291,21.689 51.353,19.774 51.396,17.859 C51.398,17.743 51.279,17.579 51.170,17.515 C50.908,17.361 50.619,17.253 50.307,17.112 C49.487,19.240 49.487,19.240 50.221,21.244 ZM51.491,16.594 C51.491,15.395 51.491,14.319 51.491,13.151 C51.169,14.201 50.870,15.177 50.566,16.168 C50.866,16.306 51.107,16.417 51.491,16.594 ZM50.762,37.319 C50.518,38.112 50.070,38.843 49.701,39.629 C49.817,39.629 49.865,39.644 49.884,39.627 C51.334,38.290 52.784,36.954 54.224,35.606 C54.309,35.526 54.357,35.332 54.325,35.218 C54.227,34.874 54.080,34.543 53.954,34.210 C53.863,34.238 53.825,34.249 53.789,34.262 C52.296,34.809 51.245,35.752 50.762,37.319 ZM54.236,36.976 C54.070,37.095 53.989,37.140 53.923,37.201 C52.186,38.810 50.447,40.417 48.721,42.036 C48.530,42.216 48.378,42.456 48.264,42.695 C47.434,44.440 46.618,46.191 45.801,47.941 C45.731,48.089 45.684,48.248 45.615,48.435 C47.707,49.065 49.743,49.678 51.818,50.303 C52.628,45.840 53.422,41.461 54.236,36.976 ZM35.690,57.204 C40.334,55.297 44.979,53.389 49.624,51.481 C49.622,51.436 49.620,51.391 49.617,51.346 C47.851,51.292 46.084,51.229 44.317,51.199 C44.111,51.195 43.884,51.354 43.698,51.482 C41.124,53.256 38.555,55.037 35.987,56.817 C35.860,56.905 35.744,57.009 35.624,57.105 C35.646,57.138 35.668,57.171 35.690,57.204 ZM31.310,58.892 C35.015,56.327 38.675,53.792 42.336,51.257 C42.321,51.215 42.307,51.173 42.292,51.132 C39.786,51.058 37.280,50.980 34.774,50.917 C34.569,50.912 34.356,50.993 34.157,51.064 C32.367,51.707 30.580,52.356 28.792,53.006 C28.621,53.068 28.456,53.146 28.263,53.228 C29.296,55.147 30.291,56.999 31.310,58.892 ZM29.040,58.210 C27.889,56.840 26.688,55.554 25.467,54.288 C25.335,54.151 25.096,54.087 24.895,54.047 C22.913,53.659 20.928,53.280 18.943,52.904 C17.419,52.614 15.895,52.331 14.370,52.046 C14.357,52.087 14.344,52.128 14.332,52.169 C19.234,54.183 24.137,56.196 29.040,58.210 ZM24.167,52.932 C23.943,52.675 23.825,52.529 23.696,52.392 C22.792,51.432 21.828,50.520 20.993,49.504 C19.769,48.015 18.284,46.956 16.481,46.256 C15.132,45.732 13.842,45.060 12.477,44.431 C11.865,46.429 11.269,48.374 10.660,50.363 C15.174,51.222 19.597,52.063 24.167,52.932 ZM10.276,30.757 C10.276,29.153 10.276,27.549 10.276,25.895 C9.728,26.185 9.177,26.476 8.612,26.774 C9.126,28.160 9.614,29.475 10.101,30.791 C10.160,30.780 10.218,30.769 10.276,30.757 ZM9.527,48.342 C9.614,48.329 9.701,48.316 9.788,48.302 C9.788,46.703 9.803,45.103 9.776,43.504 C9.771,43.201 9.668,42.855 9.497,42.605 C7.719,40.003 5.918,37.416 4.122,34.825 C4.017,34.675 3.904,34.530 3.795,34.383 C3.768,34.397 3.740,34.412 3.713,34.427 C5.651,39.065 7.589,43.704 9.527,48.342 ZM9.842,41.401 C9.867,41.178 9.880,41.110 9.882,41.041 C9.960,38.686 10.037,36.331 10.111,33.975 C10.116,33.842 10.127,33.696 10.082,33.574 C9.319,31.472 8.548,29.372 7.761,27.224 C5.867,28.225 4.018,29.202 2.095,30.218 C4.679,33.948 7.218,37.613 9.842,41.401 ZM7.418,26.322 C7.299,26.004 7.194,25.724 7.069,25.389 C6.237,26.167 5.451,26.903 4.666,27.638 C4.692,27.671 4.717,27.704 4.743,27.738 C5.624,27.271 6.505,26.805 7.418,26.322 ZM8.631,13.924 C6.675,18.608 4.719,23.291 2.764,27.975 C4.110,26.844 5.373,25.671 6.623,24.484 C6.751,24.362 6.845,24.166 6.878,23.990 C7.501,20.657 8.113,17.321 8.728,13.986 C8.695,13.965 8.663,13.945 8.631,13.924 ZM8.032,23.096 C8.171,23.011 8.226,22.989 8.266,22.951 C10.008,21.324 11.749,19.697 13.487,18.067 C13.597,17.963 13.705,17.840 13.769,17.705 C14.711,15.720 15.645,13.731 16.622,11.655 C14.540,11.027 12.528,10.421 10.465,9.800 C9.647,14.271 8.846,18.646 8.032,23.096 ZM26.641,2.900 C21.963,4.822 17.286,6.744 12.609,8.666 C12.618,8.709 12.628,8.751 12.637,8.794 C14.268,8.845 15.898,8.913 17.529,8.932 C17.850,8.936 18.223,8.824 18.488,8.644 C21.107,6.869 23.709,5.068 26.315,3.273 C26.445,3.184 26.566,3.082 26.691,2.986 C26.674,2.957 26.658,2.929 26.641,2.900 ZM30.882,1.292 C27.149,3.861 23.475,6.389 19.801,8.918 C22.269,9.106 24.678,9.190 27.086,9.270 C27.181,9.273 27.284,9.263 27.373,9.232 C29.525,8.461 31.676,7.686 33.894,6.887 C32.864,4.975 31.882,3.149 30.882,1.292 ZM33.056,1.839 C33.034,1.875 33.011,1.911 32.989,1.947 C34.219,3.232 35.443,4.523 36.686,5.796 C36.820,5.932 37.055,6.003 37.254,6.040 C39.716,6.503 42.181,6.956 44.645,7.407 C45.603,7.582 46.563,7.747 47.522,7.916 C47.533,7.876 47.544,7.836 47.555,7.796 C42.722,5.810 37.889,3.824 33.056,1.839 ZM38.049,7.162 C38.159,7.319 38.204,7.400 38.266,7.466 C39.911,9.191 41.553,10.920 43.211,12.634 C43.406,12.835 43.674,12.984 43.933,13.105 C45.533,13.854 47.139,14.589 48.744,15.327 C49.039,15.463 49.337,15.591 49.687,15.746 C50.318,13.690 50.931,11.693 51.563,9.635 C47.041,8.808 42.592,7.994 38.049,7.162 ZM51.940,29.193 C51.940,30.831 51.940,32.469 51.940,34.158 C52.513,33.853 53.068,33.559 53.623,33.264 C53.105,31.858 52.612,30.522 52.119,29.186 C52.059,29.188 52.000,29.191 51.940,29.193 ZM52.693,11.639 C52.602,11.653 52.511,11.667 52.421,11.681 C52.421,13.397 52.409,15.114 52.434,16.830 C52.438,17.094 52.563,17.390 52.718,17.614 C53.841,19.235 54.985,20.842 56.123,22.454 C56.892,23.542 57.661,24.630 58.429,25.717 C58.469,25.695 58.508,25.672 58.547,25.650 C56.596,20.979 54.644,16.309 52.693,11.639 ZM52.347,18.762 C52.291,20.537 52.336,22.139 52.168,23.718 C51.971,25.563 52.313,27.262 53.035,28.943 C53.573,30.194 53.995,31.492 54.485,32.812 C56.385,31.807 58.234,30.830 60.151,29.817 C57.550,26.133 55.000,22.521 52.347,18.762 ZM15.568,26.475 C15.854,26.175 16.120,25.897 16.384,25.618 C18.077,23.830 19.766,22.036 21.473,20.260 C21.625,20.102 21.893,19.967 22.107,19.966 C28.107,19.939 34.106,19.929 40.106,19.927 C40.278,19.927 40.498,20.006 40.616,20.125 C42.654,22.201 44.681,24.288 46.709,26.375 C46.734,26.401 46.743,26.443 46.780,26.519 C41.610,32.517 36.428,38.528 31.209,44.583 C25.983,38.533 20.792,32.522 15.568,26.475 ZM30.688,40.950 C30.688,36.305 30.688,31.660 30.688,26.997 C28.809,26.997 26.986,26.997 25.078,26.997 C26.943,31.717 28.773,36.351 30.604,40.986 C30.632,40.974 30.660,40.962 30.688,40.950 ZM29.432,41.061 C29.471,41.040 29.509,41.020 29.548,40.999 C29.522,40.911 29.502,40.820 29.469,40.735 C27.711,36.284 25.948,31.834 24.203,27.378 C24.071,27.041 23.890,26.957 23.556,26.959 C21.648,26.970 19.740,26.962 17.832,26.964 C17.687,26.964 17.542,26.994 17.303,27.020 C21.387,31.747 25.410,36.404 29.432,41.061 ZM21.797,21.302 C20.306,22.873 18.869,24.388 17.364,25.975 C19.519,25.975 21.534,25.975 23.639,25.975 C23.020,24.403 22.422,22.887 21.797,21.302 ZM23.062,21.885 C23.577,23.186 24.083,24.491 24.621,25.783 C24.670,25.900 24.922,25.991 25.082,25.996 C25.859,26.018 26.637,26.006 27.415,26.006 C28.062,26.006 28.709,26.006 29.356,26.006 C29.364,25.962 29.373,25.919 29.381,25.875 C27.317,24.517 25.252,23.158 23.187,21.800 C23.146,21.828 23.104,21.857 23.062,21.885 ZM39.018,21.778 C36.996,23.146 34.973,24.514 32.951,25.882 C34.429,26.007 35.860,26.013 37.291,25.997 C37.407,25.996 37.585,25.878 37.627,25.772 C38.141,24.471 38.636,23.162 39.136,21.855 C39.097,21.829 39.057,21.803 39.018,21.778 ZM40.389,21.269 C39.775,22.880 39.196,24.397 38.603,25.954 C40.744,25.954 42.813,25.954 44.971,25.954 C43.418,24.366 41.937,22.851 40.389,21.269 ZM45.051,27.061 C44.913,27.015 44.861,26.983 44.809,26.982 C42.726,26.977 40.642,26.965 38.559,26.991 C38.388,26.994 38.133,27.228 38.063,27.410 C36.362,31.821 34.680,36.240 32.997,40.659 C32.958,40.762 32.953,40.879 32.901,41.152 C37.010,36.386 41.005,31.753 45.051,27.061 ZM31.731,40.925 C31.773,40.932 31.814,40.940 31.856,40.947 C33.621,36.317 35.386,31.688 37.172,27.004 C35.299,27.004 33.519,27.004 31.731,27.004 C31.731,31.667 31.731,36.296 31.731,40.925 ZM31.585,25.653 C33.765,24.171 35.952,22.697 38.135,21.219 C38.249,21.141 38.349,21.042 38.517,20.902 C33.545,20.902 28.671,20.902 23.651,20.902 C23.814,21.043 23.865,21.099 23.926,21.139 C26.241,22.664 28.561,24.183 30.867,25.720 C31.164,25.918 31.346,25.815 31.585,25.653 ZM83.870,44.108 C85.275,44.570 86.125,45.861 86.098,47.428 C86.090,47.877 85.942,48.016 85.482,48.008 C83.829,47.981 82.175,47.997 80.521,47.997 C80.311,47.997 80.101,47.997 79.861,47.997 C79.914,50.887 83.257,51.666 85.312,50.046 C85.702,50.640 85.697,50.665 85.108,51.049 C83.532,52.078 81.142,51.845 79.880,50.539 C78.647,49.262 78.506,46.883 79.575,45.382 C80.464,44.134 82.295,43.591 83.870,44.108 ZM85.139,47.261 C85.209,45.732 84.150,44.736 82.540,44.751 C80.982,44.766 79.775,45.890 79.864,47.261 C81.610,47.261 83.357,47.261 85.139,47.261 ZM104.516,44.254 C105.896,44.885 106.586,46.305 106.281,47.997 C104.233,47.997 102.215,47.997 100.139,47.997 C100.189,49.044 100.530,49.905 101.432,50.403 C102.872,51.198 104.271,50.986 105.608,50.047 C105.963,50.420 105.928,50.700 105.486,51.004 C103.923,52.078 101.437,51.865 100.157,50.522 C98.891,49.192 98.812,46.683 99.991,45.219 C100.988,43.981 102.988,43.554 104.516,44.254 ZM105.431,47.248 C105.538,45.830 104.504,44.782 102.992,44.752 C101.341,44.720 100.117,45.781 100.159,47.248 C101.916,47.248 103.674,47.248 105.431,47.248 ZM109.327,39.970 C109.327,40.201 109.327,40.426 109.327,40.651 C109.327,43.353 109.327,46.055 109.328,48.757 C109.328,49.008 109.328,49.259 109.344,49.509 C109.417,50.724 110.054,51.106 111.191,50.621 C111.260,50.591 111.328,50.559 111.415,50.519 C111.792,51.036 111.581,51.275 111.111,51.454 C109.633,52.016 108.495,51.414 108.470,49.916 C108.415,46.619 108.453,43.319 108.453,39.970 C108.731,39.970 108.988,39.970 109.327,39.970 ZM136.744,44.875 C136.627,45.072 136.504,45.279 136.358,45.524 C135.437,44.829 134.433,44.612 133.358,44.812 C132.624,44.948 132.040,45.365 131.601,45.968 C130.700,47.203 130.849,49.034 131.930,50.053 C133.134,51.187 134.943,51.142 136.505,49.878 C136.650,50.099 136.773,50.286 136.888,50.462 C135.691,51.951 132.986,52.105 131.418,50.806 C129.807,49.473 129.637,46.796 131.061,45.174 C132.408,43.641 135.220,43.473 136.744,44.875 ZM148.789,45.027 C149.568,44.362 150.377,43.947 151.355,43.949 C152.358,43.950 153.190,44.258 153.692,45.249 C154.497,44.331 155.481,43.889 156.682,43.952 C157.793,44.011 158.661,44.574 158.729,45.645 C158.850,47.579 158.763,49.527 158.763,51.500 C158.549,51.500 158.304,51.500 157.994,51.500 C157.994,50.363 157.995,49.248 157.994,48.132 C157.993,47.591 158.012,47.049 157.978,46.510 C157.905,45.352 157.251,44.727 156.090,44.778 C155.620,44.798 155.127,44.933 154.702,45.136 C154.099,45.423 153.756,45.880 153.789,46.648 C153.855,48.245 153.809,49.846 153.809,51.510 C153.493,51.510 153.264,51.510 152.955,51.510 C152.955,51.287 152.955,51.082 152.955,50.876 C152.955,49.486 152.959,48.095 152.954,46.705 C152.950,45.374 152.249,44.706 150.915,44.766 C150.159,44.799 149.510,45.100 149.018,45.659 C148.860,45.838 148.779,46.138 148.775,46.385 C148.753,47.872 148.764,49.359 148.764,50.846 C148.764,51.054 148.764,51.262 148.764,51.499 C148.462,51.499 148.220,51.499 147.945,51.499 C147.945,49.026 147.945,46.584 147.945,44.107 C148.207,44.107 148.449,44.107 148.740,44.107 C148.755,44.388 148.770,44.663 148.789,45.027 ZM162.236,44.931 C162.368,44.858 162.481,44.810 162.577,44.740 C163.877,43.791 165.622,43.636 166.857,44.421 C168.277,45.324 168.647,46.719 168.453,48.264 C168.059,51.406 165.142,52.277 162.711,51.331 C162.572,51.277 162.439,51.208 162.200,51.100 C162.200,52.409 162.200,53.601 162.200,54.822 C161.917,54.822 161.675,54.822 161.399,54.822 C161.399,51.256 161.399,47.710 161.399,44.118 C161.652,44.118 161.909,44.118 162.193,44.118 C162.207,44.376 162.220,44.623 162.236,44.931 ZM162.218,48.058 C162.218,48.386 162.218,48.715 162.218,49.043 C162.218,50.344 162.436,50.592 163.764,50.801 C163.898,50.823 164.033,50.844 164.169,50.859 C165.575,51.013 166.800,50.343 167.308,49.141 C167.878,47.793 167.540,46.091 166.545,45.303 C165.563,44.526 163.928,44.570 162.776,45.384 C162.380,45.663 162.163,45.983 162.208,46.494 C162.253,47.012 162.218,47.536 162.218,48.058 ZM174.429,47.388 C174.571,47.442 174.709,47.506 174.939,47.604 C174.898,46.675 175.085,45.686 174.265,45.117 C173.189,44.372 172.033,44.755 170.872,45.282 C170.792,45.074 170.715,44.872 170.640,44.677 C171.626,43.869 173.550,43.682 174.630,44.268 C175.350,44.659 175.706,45.318 175.729,46.071 C175.784,47.860 175.747,49.652 175.747,51.509 C175.476,51.509 175.247,51.509 174.944,51.509 C174.944,51.186 174.944,50.876 174.944,50.403 C174.138,51.358 173.227,51.681 172.156,51.621 C171.044,51.558 170.274,50.919 170.070,49.866 C169.869,48.830 170.341,47.872 171.311,47.428 C172.338,46.958 173.384,46.989 174.429,47.388 ZM170.972,49.600 C171.054,50.173 171.493,50.651 172.119,50.763 C172.959,50.913 173.745,50.773 174.417,50.205 C174.770,49.906 175.067,49.581 175.034,49.024 C174.919,48.766 174.877,48.388 174.677,48.269 C173.763,47.720 172.774,47.618 171.782,48.077 C171.158,48.366 170.876,48.940 170.972,49.600 ZM179.179,45.060 C180.091,44.269 181.055,43.897 182.183,43.950 C183.735,44.023 184.762,44.758 184.895,46.282 C185.046,47.999 184.930,49.739 184.930,51.498 C184.698,51.498 184.457,51.498 184.152,51.498 C184.152,50.487 184.156,49.508 184.151,48.528 C184.149,48.007 184.174,47.482 184.116,46.966 C183.929,45.298 182.875,44.516 181.204,44.795 C180.864,44.852 180.529,44.978 180.211,45.115 C179.478,45.431 179.066,45.891 179.130,46.798 C179.225,48.162 179.154,49.538 179.154,50.908 C179.154,51.096 179.154,51.284 179.154,51.497 C178.849,51.497 178.608,51.497 178.335,51.497 C178.335,49.023 178.335,46.582 178.335,44.107 C178.599,44.107 178.842,44.107 179.126,44.107 C179.142,44.395 179.158,44.677 179.179,45.060 Z"/>
</svg>