<svg 
 xmlns="http://www.w3.org/2000/svg"
 xmlns:xlink="http://www.w3.org/1999/xlink"
 width="12px" height="11px">
<path fill-rule="evenodd"  fill="rgb(198, 152, 51)"
 d="M9.195,3.235 L10.243,0.291 L12.001,3.235 L9.195,3.235 ZM6.463,0.001 L9.875,0.001 L8.802,3.015 L6.463,0.001 ZM3.595,3.235 L6.000,0.137 L8.405,3.235 L3.595,3.235 ZM2.122,0.001 L5.536,0.001 L3.181,3.035 L2.122,0.001 ZM-0.002,3.235 L1.754,0.294 L2.781,3.235 L-0.002,3.235 ZM5.334,10.549 L0.061,3.697 L2.942,3.697 L5.334,10.549 ZM8.559,3.697 L5.961,10.998 L3.412,3.697 L8.559,3.697 ZM11.938,3.697 L6.529,10.726 L9.030,3.697 L11.938,3.697 Z"/>
</svg>