<svg 
 xmlns="http://www.w3.org/2000/svg"
 xmlns:xlink="http://www.w3.org/1999/xlink"
 width="24px" height="31px">
<path fill-rule="evenodd"  fill="rgb(232, 232, 232)"
 d="M23.998,26.935 C23.999,26.450 24.001,26.865 23.998,26.935 ZM12.000,31.000 C1.769,31.000 0.003,27.502 0.003,27.502 C0.003,27.095 0.003,26.862 0.002,26.735 C0.004,26.803 0.009,26.772 0.020,26.192 C0.156,19.091 1.184,17.044 8.522,15.743 C8.522,15.743 9.566,17.050 12.000,17.050 C14.434,17.050 15.479,15.743 15.479,15.743 C22.897,17.058 23.867,19.136 23.985,26.429 C23.992,26.896 23.996,26.977 23.998,26.935 C23.998,27.059 23.998,27.240 23.998,27.502 C23.998,27.502 22.231,31.000 12.000,31.000 ZM12.000,15.161 C8.492,15.161 5.648,11.767 5.648,7.581 C5.648,3.394 6.582,-0.000 12.000,-0.000 C17.419,-0.000 18.353,3.394 18.353,7.581 C18.353,11.767 15.508,15.161 12.000,15.161 ZM0.002,26.735 C0.000,26.664 0.001,26.480 0.002,26.735 Z"/>
</svg>