<svg xmlns="http://www.w3.org/2000/svg" xmlns:xlink="http://www.w3.org/1999/xlink" width="26px" height="16px">
    <path fill-rule="evenodd"  stroke-width="1px" d="M19.952,9.223 C20.549,9.738 21.179,10.222 21.714,10.789 C21.950,11.041 22.174,11.301 22.345,11.594 C22.588,12.009 22.368,12.467 21.947,12.492 L19.326,12.491 C18.650,12.540 18.110,12.300 17.657,11.891 C17.294,11.564 16.958,11.217 16.609,10.879 C16.466,10.741 16.316,10.611 16.137,10.508 C15.779,10.303 15.469,10.366 15.264,10.696 C15.056,11.031 15.009,11.403 14.988,11.777 C14.960,12.322 14.774,12.466 14.154,12.491 C12.829,12.546 11.571,12.369 10.403,11.778 C9.373,11.257 8.575,10.522 7.879,9.689 C6.526,8.068 5.490,6.287 4.558,4.456 C4.349,4.043 4.502,3.822 5.017,3.814 C5.872,3.799 6.727,3.800 7.583,3.813 C7.930,3.818 8.160,3.994 8.295,4.284 C8.757,5.289 9.323,6.246 10.034,7.133 C10.223,7.369 10.416,7.605 10.691,7.771 C10.995,7.955 11.226,7.894 11.369,7.595 C11.460,7.405 11.500,7.201 11.520,6.998 C11.588,6.298 11.597,5.600 11.478,4.903 C11.405,4.468 11.128,4.187 10.637,4.104 C10.386,4.062 10.424,3.980 10.545,3.854 C10.756,3.636 10.954,3.500 11.349,3.500 L14.311,3.500 C14.778,3.581 14.881,3.766 14.945,4.181 L14.947,7.090 C14.942,7.251 15.038,7.727 15.365,7.833 C15.627,7.909 15.800,7.724 15.957,7.577 C16.666,6.912 17.172,6.125 17.625,5.311 C17.825,4.953 17.998,4.581 18.165,4.209 C18.289,3.934 18.483,3.798 18.835,3.804 L21.686,3.806 C21.770,3.806 21.856,3.807 21.938,3.820 C22.418,3.892 22.550,4.075 22.401,4.490 C22.168,5.140 21.713,5.682 21.268,6.227 C20.793,6.809 20.284,7.370 19.812,7.955 C19.379,8.489 19.414,8.759 19.952,9.223 L19.952,9.223 Z"/>
</svg>