<svg xmlns="http://www.w3.org/2000/svg" xmlns:xlink="http://www.w3.org/1999/xlink" width="24px" height="20px">
    <path fill-rule="evenodd"  stroke-width="1px" d="M18.876,16.175 C18.396,16.337 15.438,16.500 12.479,16.500 C9.521,16.500 6.562,16.337 6.082,16.175 C4.803,15.769 4.483,12.925 4.483,10.000 C4.483,7.075 4.803,4.231 6.082,3.825 C6.562,3.662 9.521,3.500 12.479,3.500 C15.438,3.500 18.396,3.662 18.876,3.825 C20.156,4.231 20.475,7.075 20.475,10.000 C20.475,12.925 20.156,15.769 18.876,16.175 ZM10.880,6.344 L10.880,13.656 L15.678,10.000 L10.880,6.344 Z"/>
</svg>